<svg width="774" height="420" viewBox="0 0 774 420" fill="none" xmlns="http://www.w3.org/2000/svg">
<g clip-path="url(#clip0_17_124)">
<path d="M420 221.693V222.603C419.999 230.961 416.677 238.977 410.766 244.886C404.855 250.795 396.838 254.114 388.48 254.113H32.71C24.3533 254.112 16.3391 250.792 10.4301 244.883C4.52101 238.974 1.20099 230.96 1.2002 222.603V221.693H420Z" fill="#F2F2F2"/>
<path d="M75.6098 71.693C49.8998 78.043 26.8199 58.263 22.79 39.913L24.58 39.5931C46.25 34.803 70.4399 50.293 75.6098 71.693Z" fill="#169976"/>
<path d="M697.069 411.524C689.634 408.314 687.945 396.616 694.168 391.433C700.392 386.25 711.591 390.028 713.403 397.922L706.467 348.303C704.872 336.896 703.596 324.144 710.49 314.917C716.945 306.276 729.557 303.507 739.681 307.227C749.806 310.947 757.289 320.225 760.463 330.534C763.638 340.842 762.889 352.044 760.117 362.468C757.344 372.892 752.635 382.683 747.872 392.361C742.992 402.277 737.072 413.023 726.64 416.674C716.674 420.161 697.069 411.524 697.069 411.524Z" fill="#F2F2F2"/>
<path d="M729.655 306.286C734.213 320.512 736.383 335.394 736.077 350.33C735.791 365.199 733.12 379.925 728.166 393.948C725.347 401.903 721.774 409.571 717.497 416.847C717.312 417.189 717.268 417.59 717.373 417.965C717.478 418.34 717.724 418.659 718.06 418.856C718.397 419.052 718.796 419.11 719.174 419.018C719.552 418.926 719.88 418.69 720.087 418.361C727.766 405.239 733.222 390.938 736.235 376.036C739.293 361.064 739.905 345.696 738.048 330.528C737.003 322.028 735.162 313.644 732.548 305.488C731.959 303.658 729.061 304.441 729.655 306.286Z" fill="white"/>
<path d="M692.661 393.259L716.405 418.211C717.738 419.612 719.857 417.489 718.526 416.09L694.783 391.138C693.449 389.737 691.33 391.86 692.661 393.259Z" fill="white"/>
<path d="M672.491 299.048C671.645 299.049 670.827 298.745 670.188 298.192C655.527 288.646 642.477 276.829 631.527 263.184C630.857 262.548 630.462 261.675 630.427 260.752C630.392 259.83 630.72 258.93 631.34 258.245L638.537 250.297L640.019 251.64L632.822 259.588C632.549 259.89 632.407 260.288 632.427 260.695C632.447 261.102 632.628 261.484 632.93 261.757L633.035 261.868C643.876 275.391 656.804 287.099 671.333 296.55L671.464 296.65C671.766 296.924 672.164 297.066 672.571 297.046C672.977 297.026 673.359 296.845 673.633 296.543L687.676 281.035C687.937 280.747 688.079 280.37 688.073 279.981C688.067 279.592 687.913 279.22 687.644 278.939C684.389 277.166 681.214 275.233 678.204 273.193L679.326 271.538C682.319 273.566 685.478 275.487 688.717 277.246L688.91 277.384C689.255 277.695 689.534 278.072 689.733 278.492C689.931 278.911 690.046 279.366 690.069 279.83C690.092 280.293 690.023 280.757 689.867 281.194C689.71 281.632 689.47 282.034 689.158 282.378L675.115 297.886C674.805 298.231 674.428 298.511 674.008 298.71C673.589 298.908 673.133 299.022 672.669 299.043C672.61 299.046 672.55 299.048 672.491 299.048Z" fill="#3F3D56"/>
<path d="M657.01 272.942C661.42 276.932 665.95 279.122 667.13 277.822C667.284 277.601 667.381 277.346 667.412 277.079C667.444 276.812 667.409 276.542 667.31 276.291C666.832 274.82 666.067 273.457 665.06 272.282C661.14 269.491 657.33 266.481 653.63 263.252C652.47 262.872 651.58 262.881 651.15 263.361C651.089 263.43 651.038 263.508 651 263.591C650.26 265.101 652.83 269.152 657.01 272.942Z" fill="#169976"/>
<path d="M630.43 240.791C630.468 241.702 630.863 242.561 631.53 243.181C637.455 250.503 643.967 257.329 651 263.591C656.148 268.183 661.597 272.426 667.31 276.291C668.26 276.941 669.22 277.571 670.19 278.191C670.827 278.749 671.644 279.055 672.49 279.051C672.55 279.051 672.61 279.041 672.67 279.041C673.135 279.02 673.591 278.906 674.012 278.707C674.432 278.508 674.809 278.227 675.12 277.881L689.16 262.381C689.79 261.685 690.117 260.767 690.07 259.83C690.023 258.892 689.606 258.012 688.91 257.381L688.72 257.241C673.392 248.962 660.29 237.102 650.53 222.671L650.38 222.491C649.684 221.862 648.766 221.535 647.829 221.582C646.891 221.628 646.01 222.046 645.38 222.741L631.34 238.241C631.028 238.586 630.787 238.988 630.631 239.426C630.474 239.863 630.406 240.327 630.43 240.791ZM632.43 240.691C632.42 240.491 632.449 240.291 632.516 240.103C632.583 239.914 632.686 239.74 632.82 239.591L646.86 224.081C646.996 223.931 647.161 223.809 647.345 223.723C647.528 223.638 647.727 223.589 647.93 223.581C648.298 223.559 648.661 223.673 648.95 223.901C658.854 238.511 672.123 250.529 687.64 258.941C687.91 259.22 688.064 259.591 688.072 259.979C688.079 260.366 687.939 260.743 687.68 261.031L673.63 276.541C673.497 276.693 673.334 276.815 673.152 276.901C672.97 276.987 672.772 277.035 672.57 277.041C672.164 277.061 671.765 276.921 671.46 276.652L671.33 276.552C669.21 275.192 667.12 273.768 665.06 272.282C661.14 269.491 657.33 266.481 653.63 263.252C646.158 256.734 639.266 249.581 633.03 241.872L632.93 241.762C632.63 241.484 632.451 241.1 632.43 240.691Z" fill="#3F3D56"/>
<path d="M667.13 257.825C668.305 256.527 665.68 252.237 661.268 248.241C656.856 244.246 652.327 242.059 651.152 243.357C649.977 244.655 652.601 248.945 657.013 252.941C661.425 256.936 665.954 259.123 667.13 257.825Z" fill="#169976"/>
<path d="M578.904 406.55L566.645 406.549L560.812 359.261L578.906 359.262L578.904 406.55Z" fill="#FFB8B8"/>
<path d="M582.031 418.434L542.5 418.433V417.933C542.5 415.912 542.898 413.911 543.671 412.044C544.445 410.178 545.578 408.481 547.007 407.053C548.436 405.624 550.132 404.491 551.999 403.717C553.865 402.944 555.866 402.546 557.887 402.546H557.888L582.031 402.547L582.031 418.434Z" fill="#2F2E41"/>
<path d="M614.904 406.55L602.645 406.549L596.812 359.261L614.906 359.262L614.904 406.55Z" fill="#FFB8B8"/>
<path d="M618.031 418.434L578.5 418.433V417.933C578.5 415.912 578.898 413.911 579.671 412.044C580.445 410.178 581.578 408.481 583.007 407.053C584.436 405.624 586.132 404.491 587.999 403.717C589.865 402.944 591.866 402.546 593.887 402.546H593.888L618.031 402.547L618.031 418.434Z" fill="#2F2E41"/>
<path d="M623.132 215.442L620.205 389.136C620.195 389.686 620.073 390.229 619.844 390.729C619.616 391.23 619.287 391.678 618.878 392.045C618.468 392.413 617.988 392.692 617.465 392.865C616.943 393.039 616.391 393.102 615.843 393.052L601.497 391.748C600.556 391.663 599.676 391.247 599.012 390.574C598.348 389.902 597.944 389.016 597.871 388.074L589.472 279.729C589.452 279.474 589.336 279.237 589.147 279.065C588.958 278.894 588.711 278.801 588.455 278.806C588.2 278.811 587.957 278.914 587.774 279.092C587.592 279.271 587.485 279.513 587.476 279.768L583.278 390.594C583.239 391.628 582.8 392.606 582.055 393.324C581.31 394.041 580.315 394.442 579.281 394.442H563.895C562.877 394.442 561.896 394.054 561.154 393.356C560.412 392.658 559.965 391.703 559.903 390.686L549.132 214.442L613.132 198.442L623.132 215.442Z" fill="#2F2E41"/>
<path d="M576.711 52.3457C590.275 52.3457 601.272 41.3493 601.272 27.7847C601.272 14.22 590.275 3.22363 576.711 3.22363C563.146 3.22363 552.15 14.22 552.15 27.7847C552.15 41.3493 563.146 52.3457 576.711 52.3457Z" fill="#FFB8B8"/>
<path d="M546.941 220.609C546.515 220.198 546.175 219.707 545.941 219.163C545.707 218.62 545.583 218.036 545.576 217.444L543.919 99.0018C543.82 92.9767 545.632 87.0751 549.097 82.1446C552.561 77.2142 557.499 73.5087 563.201 71.5604C565.502 61.1209 577.749 59.8133 584.889 59.9695C586.671 60.0079 588.417 60.4754 589.98 61.3323C591.543 62.1893 592.876 63.4105 593.866 64.8924L598.984 72.5692L610.264 79.1815C615.485 82.2285 619.603 86.855 622.024 92.3936C624.445 97.9322 625.044 104.097 623.735 109.998L621.998 117.897C615.883 145.857 616.464 174.866 623.696 202.557L627.19 215.882C627.373 216.576 627.386 217.303 627.23 218.003C627.074 218.703 626.752 219.356 626.292 219.907C625.833 220.458 625.248 220.89 624.587 221.169C623.926 221.448 623.208 221.565 622.492 221.51L618.434 221.197C617.38 221.117 616.388 220.669 615.633 219.93C614.877 219.192 614.405 218.211 614.301 217.159L613.63 210.442C613.617 210.319 613.56 210.204 613.468 210.121C613.376 210.038 613.256 209.992 613.132 209.992C613.008 209.992 612.889 210.038 612.797 210.121C612.705 210.204 612.647 210.319 612.635 210.442L611.984 216.945C611.875 218.044 611.365 219.064 610.552 219.811C609.739 220.558 608.68 220.98 607.576 220.997L550.145 221.881C550.121 221.881 550.097 221.882 550.074 221.882C548.903 221.884 547.778 221.427 546.941 220.609Z" fill="#3F3D56"/>
<path d="M578.632 41.9422C578.733 45.4142 581.143 47.4228 584.102 49.2414C587.062 51.06 590.521 51.8485 593.91 52.6091C594.366 52.8509 594.875 52.9713 595.391 52.9586C595.906 52.946 596.409 52.8008 596.852 52.537C597.295 52.2732 597.662 51.8997 597.918 51.4527C598.175 51.0056 598.311 50.4999 598.316 49.9846L601.424 38.1613C602.524 34.3845 603.324 30.5269 603.817 26.6243C604.566 19.1152 602.786 11.0373 597.545 5.608C592.304 0.178723 583.214 -1.74994 576.933 2.43323C569.48 -7.08655 535.41 13.9462 543.814 20.566C545.309 21.7437 547.595 20.2535 549.493 20.1091C551.39 19.9646 553.517 20.2985 554.722 21.7713C556.297 23.6955 555.611 26.5618 556.26 28.9622C556.529 29.8068 556.962 30.5898 557.535 31.2663C558.107 31.9427 558.808 32.499 559.597 32.9033C560.385 33.3075 561.246 33.5516 562.13 33.6215C563.013 33.6914 563.902 33.5857 564.744 33.3105C566.313 32.5374 567.789 31.5884 569.144 30.4819C570.6 29.5123 572.439 28.7959 574.078 29.4074C576.238 30.2135 577.005 32.8578 577.2 35.155C577.529 37.4461 578.008 39.7133 578.632 41.9422Z" fill="#2F2E41"/>
<path opacity="0.2" d="M572.896 107.768L568.896 156.768L547.896 207.768L578.896 157.768L572.896 107.768Z" fill="black"/>
<path d="M542.986 226.761C544.132 225.84 545.063 224.68 545.712 223.361C546.361 222.042 546.713 220.596 546.744 219.127C546.774 217.657 546.481 216.198 545.887 214.854C545.293 213.509 544.411 212.311 543.303 211.345L556.682 178.208L538.48 181.884L528.566 212.787C527.065 214.755 526.338 217.206 526.523 219.674C526.708 222.142 527.792 224.456 529.569 226.179C531.347 227.901 533.694 228.912 536.167 229.019C538.64 229.126 541.066 228.323 542.986 226.761Z" fill="#FFB8B8"/>
<path d="M542.011 212.146L531.708 208.433C530.646 208.044 529.769 207.273 529.248 206.27C528.727 205.266 528.6 204.105 528.893 203.013L545.89 140.794L548.481 84.5612C548.56 82.8638 548.974 81.199 549.702 79.6634C550.429 78.1278 551.454 76.7521 552.718 75.6164C553.982 74.4806 555.459 73.6074 557.063 73.0475C558.667 72.4876 560.366 72.2522 562.062 72.355C563.758 72.4579 565.417 72.8968 566.942 73.6464C568.467 74.396 569.827 75.4412 570.945 76.7213C572.062 78.0015 572.913 79.4909 573.45 81.1031C573.986 82.7153 574.197 84.4181 574.069 86.1124L569.441 147.686L547.784 209.404C547.455 210.336 546.829 211.135 546.002 211.677C545.176 212.219 544.194 212.474 543.207 212.403C542.799 212.372 542.397 212.286 542.011 212.146Z" fill="#3F3D56"/>
<path d="M648.197 230.01C648.9 228.719 649.312 227.29 649.403 225.823C649.493 224.355 649.262 222.886 648.723 221.518C648.185 220.15 647.353 218.917 646.287 217.905C645.22 216.893 643.945 216.128 642.55 215.662L642.129 179.93L626.749 190.335L629.506 222.672C628.88 225.066 629.153 227.607 630.274 229.813C631.396 232.02 633.288 233.738 635.592 234.643C637.896 235.547 640.451 235.575 642.775 234.722C645.098 233.868 647.027 232.192 648.197 230.01Z" fill="#FFB8B8"/>
<path d="M641.667 216.9L630.728 217.443C629.599 217.493 628.492 217.119 627.625 216.394C626.758 215.669 626.193 214.646 626.043 213.526L617.756 149.561L598.481 96.6717C597.9 95.0753 597.641 93.3792 597.721 91.682C597.8 89.9848 598.216 88.3204 598.945 86.7854C599.673 85.2505 600.7 83.8757 601.965 82.741C603.229 81.6063 604.707 80.7344 606.311 80.1758C607.916 79.6173 609.616 79.3833 611.312 79.4875C613.007 79.5917 614.666 80.032 616.19 80.7828C617.714 81.5336 619.074 82.5799 620.19 83.8609C621.306 85.1418 622.157 86.6319 622.692 88.2445L642.144 146.848L645.937 212.145C645.993 213.132 645.724 214.11 645.169 214.929C644.615 215.748 643.807 216.362 642.87 216.676C642.481 216.805 642.076 216.88 641.667 216.9Z" fill="#3F3D56"/>
<path d="M772.979 418.941H391.979C391.714 418.941 391.46 418.836 391.272 418.648C391.085 418.461 390.979 418.207 390.979 417.941C390.979 417.676 391.085 417.422 391.272 417.234C391.46 417.047 391.714 416.941 391.979 416.941H772.979C773.245 416.941 773.499 417.047 773.687 417.234C773.874 417.422 773.979 417.676 773.979 417.941C773.979 418.207 773.874 418.461 773.687 418.648C773.499 418.836 773.245 418.941 772.979 418.941Z" fill="#3F3D56"/>
<path d="M323.218 203.043C317.475 203.043 312.908 201.335 309.642 197.966C302.26 190.351 302.722 175.672 303.094 163.878C303.202 160.447 303.304 157.206 303.201 154.491L303.2 154.45C303.226 149.145 305.344 144.066 309.094 140.314C312.844 136.562 317.923 134.441 323.227 134.413H370.843C376.579 134.413 381.142 136.118 384.405 139.483C391.787 147.092 391.33 161.767 390.962 173.558C390.855 176.997 390.754 180.245 390.859 182.964C390.841 188.277 388.725 193.366 384.973 197.127C381.22 200.887 376.135 203.013 370.823 203.043H323.218ZM305.2 154.436C305.305 157.215 305.202 160.482 305.093 163.941C304.733 175.358 304.286 189.567 311.078 196.574C313.993 199.581 317.964 201.043 323.218 201.043H370.82C375.597 201.018 380.171 199.109 383.549 195.73C386.927 192.352 388.835 187.777 388.86 183C388.753 180.252 388.855 176.97 388.963 173.496C389.319 162.081 389.761 147.876 382.97 140.875C380.057 137.872 376.09 136.413 370.843 136.413H323.23C318.458 136.439 313.888 138.346 310.513 141.72C307.138 145.094 305.229 149.663 305.2 154.436Z" fill="#3F3D56"/>
<path d="M65.0901 73.5331C56.7409 73.4825 48.5733 71.0903 41.5161 66.6283C31.1774 60.204 23.371 49.9149 21.1434 39.7777L20.9202 38.7616L23.7141 38.2616C45.7073 33.4076 70.5829 49.0497 75.912 71.0981L76.1456 72.0648L75.1801 72.3036C71.8789 73.1206 68.4908 73.5334 65.0901 73.5331ZM23.3387 40.3608C25.7385 49.6601 33.0217 58.9951 42.5717 64.9296C51.8053 70.8389 62.995 72.8733 73.7176 70.5922C68.1421 50.0507 44.7951 35.6362 24.1264 40.2192L23.3387 40.3608Z" fill="#3F3D56"/>
<path d="M37.3477 187.175C30.8051 187.175 25.4897 184.248 22.3691 178.907C20.62 175.8 19.7006 172.294 19.6995 168.729C19.6984 165.163 20.6156 161.657 22.3627 158.549C25.5332 153.117 30.9754 150.17 37.6965 150.273H101.14C107.839 150.188 113.285 153.121 116.457 158.56C118.205 161.667 119.122 165.172 119.122 168.737C119.122 172.303 118.203 175.808 116.455 178.915C113.284 184.341 107.84 187.238 101.125 187.173H37.6802C37.569 187.175 37.4582 187.175 37.3477 187.175ZM37.3848 152.271C31.5501 152.271 26.837 154.851 24.09 159.557C22.516 162.358 21.6898 165.516 21.6908 168.728C21.6919 171.941 22.5202 175.098 24.096 177.898C26.8892 182.679 31.6989 185.267 37.6652 185.173H101.14C107.113 185.268 111.937 182.681 114.729 177.905C116.303 175.106 117.13 171.948 117.131 168.737C117.131 165.525 116.304 162.367 114.73 159.568C111.937 154.779 107.111 152.201 101.154 152.273H37.6755C37.5785 152.272 37.4812 152.271 37.3848 152.271Z" fill="#3F3D56"/>
<path d="M339.5 158.193H319.5C318.174 158.193 316.902 157.666 315.964 156.728C315.027 155.791 314.5 154.519 314.5 153.193C314.5 151.867 315.027 150.595 315.964 149.657C316.902 148.72 318.174 148.193 319.5 148.193H339.5C340.826 148.193 342.098 148.72 343.036 149.657C343.973 150.595 344.5 151.867 344.5 153.193C344.5 154.519 343.973 155.791 343.036 156.728C342.098 157.666 340.826 158.193 339.5 158.193Z" fill="#169976"/>
<path d="M339.5 174.193H319.5C318.174 174.193 316.902 173.666 315.964 172.728C315.027 171.791 314.5 170.519 314.5 169.193C314.5 167.867 315.027 166.595 315.964 165.657C316.902 164.72 318.174 164.193 319.5 164.193H339.5C340.826 164.193 342.098 164.72 343.036 165.657C343.973 166.595 344.5 167.867 344.5 169.193C344.5 170.519 343.973 171.791 343.036 172.728C342.098 173.666 340.826 174.193 339.5 174.193Z" fill="#169976"/>
<path d="M339.5 190.193H319.5C318.174 190.193 316.902 189.666 315.964 188.728C315.027 187.791 314.5 186.519 314.5 185.193C314.5 183.867 315.027 182.595 315.964 181.657C316.902 180.72 318.174 180.193 319.5 180.193H339.5C340.826 180.193 342.098 180.72 343.036 181.657C343.973 182.595 344.5 183.867 344.5 185.193C344.5 186.519 343.973 187.791 343.036 188.728C342.098 189.666 340.826 190.193 339.5 190.193Z" fill="#169976"/>
<path d="M374.5 158.193H354.5C353.174 158.193 351.902 157.666 350.964 156.728C350.027 155.791 349.5 154.519 349.5 153.193C349.5 151.867 350.027 150.595 350.964 149.657C351.902 148.72 353.174 148.193 354.5 148.193H374.5C375.826 148.193 377.098 148.72 378.036 149.657C378.973 150.595 379.5 151.867 379.5 153.193C379.5 154.519 378.973 155.791 378.036 156.728C377.098 157.666 375.826 158.193 374.5 158.193Z" fill="#169976"/>
<path d="M374.5 174.193H354.5C353.174 174.193 351.902 173.666 350.964 172.728C350.027 171.791 349.5 170.519 349.5 169.193C349.5 167.867 350.027 166.595 350.964 165.657C351.902 164.72 353.174 164.193 354.5 164.193H374.5C375.826 164.193 377.098 164.72 378.036 165.657C378.973 166.595 379.5 167.867 379.5 169.193C379.5 170.519 378.973 171.791 378.036 172.728C377.098 173.666 375.826 174.193 374.5 174.193Z" fill="#169976"/>
<path d="M374.5 190.193H354.5C353.174 190.193 351.902 189.666 350.964 188.728C350.027 187.791 349.5 186.519 349.5 185.193C349.5 183.867 350.027 182.595 350.964 181.657C351.902 180.72 353.174 180.193 354.5 180.193H374.5C375.826 180.193 377.098 180.72 378.036 181.657C378.973 182.595 379.5 183.867 379.5 185.193C379.5 186.519 378.973 187.791 378.036 188.728C377.098 189.666 375.826 190.193 374.5 190.193Z" fill="#169976"/>
<path d="M420 87.1338H1.2002V89.1338H420V87.1338Z" fill="#3F3D56"/>
<path d="M387 254.693H33C24.2509 254.683 15.863 251.203 9.67639 245.016C3.48983 238.83 0.00988299 230.442 0 221.693V49.6929C0.00988299 40.9438 3.48983 32.5558 9.67639 26.3693C15.863 20.1827 24.2509 16.7028 33 16.6929H387C395.749 16.7028 404.137 20.1827 410.324 26.3693C416.51 32.5558 419.99 40.9438 420 49.6929V221.693C419.99 230.442 416.51 238.83 410.324 245.016C404.137 251.203 395.749 254.683 387 254.693ZM33 18.6929C24.7812 18.7022 16.9016 21.9713 11.09 27.7829C5.27839 33.5945 2.00934 41.474 2 49.6929V221.693C2.00934 229.912 5.27841 237.791 11.09 243.603C16.9016 249.414 24.7812 252.684 33 252.693H387C395.219 252.684 403.098 249.415 408.91 243.603C414.722 237.791 417.991 229.912 418 221.693V49.6929C417.991 41.474 414.722 33.5945 408.91 27.7829C403.098 21.9713 395.219 18.7022 387 18.6929H33Z" fill="#3F3D56"/>
</g>
<defs>
<clipPath id="clip0_17_124">
<rect width="773.979" height="419.084" fill="white"/>
</clipPath>
</defs>
</svg>
