<svg width="461" height="450" viewBox="0 0 461 450" fill="none" xmlns="http://www.w3.org/2000/svg">
<g clip-path="url(#clip0_29_5312)">
<path d="M142.359 330.109H84.613C83.1572 330.109 81.9727 328.925 81.9727 327.47C81.9727 326.014 83.1572 324.831 84.613 324.831H142.359C143.815 324.831 144.999 326.014 144.999 327.47C144.999 328.925 143.815 330.109 142.359 330.109Z" fill="#169976"/>
<path d="M39.2275 344.238C39.2275 344.712 39.6084 345.093 40.0827 345.093H186.888C187.363 345.093 187.744 344.712 187.744 344.238C187.744 343.764 187.363 343.383 186.888 343.383H40.0827C39.6084 343.383 39.2275 343.764 39.2275 344.238Z" fill="#3F3D56"/>
<path d="M348.964 171.987C374.761 171.987 395.674 151.081 395.674 125.291C395.674 99.5019 374.761 78.5953 348.964 78.5953C323.167 78.5953 302.254 99.5019 302.254 125.291C302.254 151.081 323.167 171.987 348.964 171.987Z" fill="#FF6884"/>
<path d="M0 403.244C0 403.718 0.380887 404.099 0.855194 404.099H376.18C376.654 404.099 377.035 403.718 377.035 403.244C377.035 402.77 376.654 402.389 376.18 402.389H0.855194C0.380887 402.389 0 402.77 0 403.244Z" fill="#3F3D56"/>
<path d="M5.42914 345.512L4.22852 344.197L121.408 237.302L163.626 256.222L209.215 178.064L246.671 160.015L281.375 217.838C300.111 169.346 347.099 118.614 403.403 67.1415L404.788 68.2626C351.98 118.805 306.798 169.577 281.157 220.937L249.057 167.297C247.541 164.762 244.354 163.784 241.676 165.029C221.203 174.553 204.125 190.098 192.728 209.587L164.171 258.417L157.652 255.496C135.85 245.726 110.328 249.821 92.6798 265.92L5.42914 345.512Z" fill="#3F3D56"/>
<path d="M406.044 76.8733L404.265 76.9968L401.395 70.7772L394.967 69.4721L394.718 67.7068L405.312 66.2017L406.044 76.8733Z" fill="#3F3D56"/>
<path d="M223.262 114.93L229.561 90.7217L254.1 89.5417L261.441 122.912L223.262 114.93Z" fill="#FFB6B6"/>
<path opacity="0.1" d="M223.262 114.93L229.561 90.7217L254.1 89.5417L261.441 122.912L223.262 114.93Z" fill="black"/>
<path d="M239.409 104.269C255.767 104.269 269.028 91.0124 269.028 74.6594C269.028 58.3063 255.767 45.0496 239.409 45.0496C223.051 45.0496 209.791 58.3063 209.791 74.6594C209.791 91.0124 223.051 104.269 239.409 104.269Z" fill="#FFB6B6"/>
<path d="M255.751 80.9268C255.751 80.9268 244.499 58.6403 231.316 59.927C218.133 61.2137 211.188 62.7785 211.188 62.7785C211.188 62.7785 207.274 45.4206 225.698 38.744C225.698 38.744 202.273 15.659 230.163 4.33478C258.053 -6.98944 273.66 7.45316 273.66 7.45316C273.66 7.45316 294.304 28.0565 268.303 43.4556C268.303 43.4556 287.61 69.4177 264.234 90.8163C264.234 90.8163 269.463 73.5001 264.007 76.6935C258.552 79.8869 255.751 80.9268 255.751 80.9268Z" fill="#2F2E41"/>
<path d="M206.73 237.368L202.79 241.143L174.327 302.153L171.212 403.068H219.033L241.465 353.094L256.579 402.586H299.577L309.544 312.743L282.75 249.204L206.73 237.368Z" fill="#2F2E41"/>
<path d="M256.268 112.47H224.332L189.594 131.158L197.695 167.288C197.695 167.288 195.825 189.09 200.187 205.287C204.549 221.483 202.68 242.663 202.68 242.663L282.75 249.204L285.243 175.697L283.997 126.486L256.268 112.47Z" fill="#E6E6E6"/>
<path d="M194.89 131.469C194.89 131.469 175.574 132.092 172.458 144.551C169.343 157.009 166.85 221.172 166.85 221.172C166.85 221.172 168.719 259.244 189.594 241.142C210.468 223.04 208.599 168.222 208.599 168.222L194.89 131.469Z" fill="#E6E6E6"/>
<path d="M382.25 449.282H268.416C264.56 449.282 261.424 446.146 261.424 442.292V324.648C261.424 320.794 264.56 317.658 268.416 317.658H382.25C386.106 317.658 389.242 320.794 389.242 324.648V442.292C389.242 446.146 386.106 449.282 382.25 449.282Z" fill="white"/>
<path d="M382.25 450H268.415C264.164 450 260.705 446.542 260.705 442.292V324.648C260.705 320.398 264.164 316.94 268.415 316.94H382.25C386.502 316.94 389.961 320.398 389.961 324.648V442.292C389.961 446.542 386.502 450 382.25 450ZM268.415 318.377C264.956 318.377 262.142 321.19 262.142 324.648V442.292C262.142 445.75 264.956 448.563 268.415 448.563H382.25C385.71 448.563 388.524 445.75 388.524 442.292V324.648C388.524 321.19 385.71 318.377 382.25 318.377H268.415Z" fill="#3F3D56"/>
<path d="M329.825 418.375H320.443C319.301 418.375 318.372 417.658 318.372 416.777V376.394C318.372 375.513 319.301 374.796 320.443 374.796H329.825C330.968 374.796 331.897 375.513 331.897 376.394V416.777C331.897 417.658 330.968 418.375 329.825 418.375Z" fill="#169976"/>
<path d="M298.807 394.578C297.884 394.578 297.133 395.157 297.133 395.869V416.732C297.133 417.444 297.884 418.023 298.807 418.023H308.189C309.112 418.023 309.863 417.444 309.863 416.732V395.869C309.863 395.157 309.112 394.578 308.189 394.578H298.807Z" fill="#169976"/>
<path d="M351.462 418.375H342.079C340.937 418.375 340.008 417.658 340.008 416.777V350.597C340.008 349.716 340.937 348.999 342.079 348.999H351.462C352.604 348.999 353.533 349.716 353.533 350.597V416.777C353.533 417.658 352.604 418.375 351.462 418.375Z" fill="#169976"/>
<path d="M149.561 128.286H138.844C137.539 128.286 136.478 127.467 136.478 126.46V80.3319C136.478 79.325 137.539 78.5059 138.844 78.5059H149.561C150.866 78.5059 151.928 79.325 151.928 80.3319V126.46C151.928 127.467 150.866 128.286 149.561 128.286Z" fill="#169976"/>
<path d="M114.129 101.102C113.075 101.102 112.217 101.764 112.217 102.578V126.409C112.217 127.222 113.075 127.884 114.129 127.884H124.847C125.901 127.884 126.758 127.222 126.758 126.409V102.578C126.758 101.764 125.901 101.102 124.847 101.102H114.129Z" fill="#169976"/>
<path d="M174.277 128.286H163.559C162.254 128.286 161.193 127.467 161.193 126.46V50.8643C161.193 49.8573 162.254 49.0382 163.559 49.0382H174.277C175.581 49.0382 176.643 49.8573 176.643 50.8643V126.46C176.643 127.467 175.581 128.286 174.277 128.286Z" fill="#169976"/>
<path d="M307.881 334.775C313.432 334.244 317.255 326.745 316.419 318.022C316.134 314.533 315.016 311.163 313.16 308.194L312.091 298.322L312.254 298.273L314.944 251.463C315.569 240.58 311.259 229.885 302.956 222.817C298.017 218.613 292.748 216.485 289.36 221.797C283.737 230.611 291.02 266.946 295.802 287.603L297.656 309.678C296.397 312.946 295.939 316.467 296.32 319.948C297.154 328.668 302.33 335.307 307.881 334.775Z" fill="#FFB6B6"/>
<path d="M277.142 127.732C277.142 127.732 293.343 121.502 300.821 140.19C308.298 158.878 316.399 251.072 316.399 251.072L278.388 244.22L277.142 127.732Z" fill="#E6E6E6"/>
<path d="M54.6805 118.591H32.8655C31.4097 118.591 30.2251 117.407 30.2251 115.951C30.2251 114.496 31.4097 113.312 32.8655 113.312H54.6805C56.1363 113.312 57.3203 114.496 57.3203 115.951C57.3203 117.407 56.1363 118.591 54.6805 118.591Z" fill="#E6E6E6"/>
<path d="M54.6805 81.1772H32.8655C31.4097 81.1772 30.2251 79.993 30.2251 78.5376C30.2251 77.0822 31.4097 75.8986 32.8655 75.8986H54.6805C56.1363 75.8986 57.3203 77.0822 57.3203 78.5376C57.3203 79.993 56.1363 81.1772 54.6805 81.1772Z" fill="#E6E6E6"/>
<path d="M54.6805 54.1961H32.8655C31.4097 54.1961 30.2251 53.0119 30.2251 51.5565C30.2251 50.1012 31.4097 48.9175 32.8655 48.9175H54.6805C56.1363 48.9175 57.3203 50.1011 57.3203 51.5565C57.3203 53.0119 56.1363 54.1961 54.6805 54.1961Z" fill="#E6E6E6"/>
<path d="M29.3501 128.417C29.3501 128.891 29.731 129.272 30.2053 129.272H177.011C177.485 129.272 177.866 128.891 177.866 128.417C177.866 127.943 177.485 127.562 177.011 127.562H30.2053C29.731 127.562 29.3501 127.943 29.3501 128.417Z" fill="#3F3D56"/>
<path d="M312.484 349.684C312.484 350.158 312.865 350.539 313.339 350.539H460.145C460.619 350.539 461 350.158 461 349.684C461 349.21 460.619 348.829 460.145 348.829H313.339C312.865 348.829 312.484 349.21 312.484 349.684Z" fill="#3F3D56"/>
<path d="M269.367 419.369C269.367 419.843 269.748 420.224 270.222 420.224H417.028C417.502 420.224 417.883 419.843 417.883 419.369C417.883 418.895 417.502 418.514 417.028 418.514H270.222C269.748 418.514 269.367 418.895 269.367 419.369Z" fill="#3F3D56"/>
<path d="M170.647 124.095C165.096 124.626 161.273 132.125 162.109 140.848C162.394 144.337 163.512 147.707 165.368 150.676L166.437 160.548L166.274 160.597L163.584 207.407C162.959 218.29 167.269 228.985 175.572 236.053C180.511 240.257 185.78 242.385 189.169 237.073C194.791 228.259 187.508 191.924 182.726 171.267L180.872 149.192C182.131 145.924 182.59 142.403 182.208 138.922C181.374 130.202 176.198 123.563 170.647 124.095Z" fill="#FFB6B6"/>
</g>
<defs>
<clipPath id="clip0_29_5312">
<rect width="461" height="450" fill="white"/>
</clipPath>
</defs>
</svg>
