<svg width="732" height="500" viewBox="0 0 732 500" fill="none" xmlns="http://www.w3.org/2000/svg">
<g clip-path="url(#clip0_12_3882)">
<path d="M216.562 80.0489C238.659 80.0489 256.573 62.1294 256.573 40.0245C256.573 17.9196 238.659 0 216.562 0C194.464 0 176.55 17.9196 176.55 40.0245C176.55 62.1294 194.464 80.0489 216.562 80.0489Z" fill="#FE7743"/>
<path d="M288.767 9.3158C269.375 6.69385 247.237 17.1784 242.211 36.0957C240.945 32.7322 238.642 29.8586 235.636 27.8899C232.63 25.9213 229.076 24.9596 225.487 25.1438C221.899 25.328 218.462 26.6486 215.673 28.9147C212.884 31.1808 210.888 34.2751 209.972 37.7506L212.192 39.3411C253.747 48.3304 296.762 48.1358 338.234 38.7711C324.746 24.5907 308.158 11.9377 288.767 9.3158Z" fill="#F0F0F0"/>
<path d="M205.606 62.6818C186.215 60.0598 164.077 70.5444 159.051 89.4617C157.784 86.0982 155.481 83.2245 152.475 81.2559C149.469 79.2873 145.915 78.3256 142.327 78.5098C138.739 78.694 135.302 80.0145 132.513 82.2806C129.724 84.5467 127.727 87.6411 126.812 91.1166L129.032 92.7071C170.586 101.696 213.602 101.502 255.074 92.1371C241.585 77.9567 224.997 65.3037 205.606 62.6818Z" fill="#F0F0F0"/>
<path d="M353.636 169.717C347.073 158.859 339.295 147.264 327.115 143.719C313.01 139.613 298.52 147.77 286.23 155.819C249.474 179.892 214.078 205.98 180.203 233.964L180.24 234.386C206.613 232.567 232.986 230.747 259.359 228.928C278.413 227.614 298.123 226.118 314.961 217.101C321.351 213.679 327.58 209.109 334.821 208.79C343.816 208.394 351.66 214.679 357.825 221.245C394.288 260.087 404.839 319.484 445.747 353.609C419.952 289.972 389.152 228.482 353.636 169.717Z" fill="#F2F2F2"/>
<path d="M577.769 499.16C573.737 494.067 572.089 492.874 568.112 487.734C535.726 445.834 505.286 402.518 476.792 357.788C457.438 327.408 439.043 296.446 421.608 264.9C413.308 249.902 405.235 234.787 397.389 219.554C391.302 207.743 385.35 195.861 379.534 183.909C377.87 180.495 376.254 177.066 374.646 173.628C370.857 165.545 367.138 157.422 363.145 149.449C358.594 140.361 353.056 130.833 344.7 124.728C340.898 121.835 336.35 120.085 331.59 119.681C324.789 119.242 318.512 122.052 312.613 125.12C269.448 147.636 229.036 175.865 192.485 207.986C155.84 240.18 123.085 276.551 94.8889 316.359C94.0262 317.591 91.9863 316.413 92.8571 315.173C96.2856 310.323 99.782 305.526 103.346 300.78C147.667 241.816 202.01 191.109 263.893 150.979C274.304 144.23 284.911 137.797 295.714 131.681C301.158 128.597 306.627 125.552 312.189 122.695C317.642 119.893 323.431 117.374 329.66 117.28C350.859 116.95 361.834 140.965 369.374 157.124C371.743 162.209 374.141 167.279 376.568 172.333C385.739 191.521 395.263 210.534 405.14 229.372C411.236 241.003 417.465 252.565 423.828 264.06C443.63 299.854 464.676 334.924 486.967 369.269C516.497 414.764 545.792 454.953 579.432 497.497C580.358 498.674 578.703 500.353 577.769 499.16Z" fill="#E4E4E4"/>
<path d="M190.39 196.128C189.159 194.755 187.935 193.381 186.695 192.008C176.92 181.194 166.431 170.505 153.007 164.305C146.607 161.255 139.62 159.635 132.531 159.557C125.203 159.58 118.041 161.503 111.27 164.195C108.069 165.474 104.939 166.926 101.856 168.472C98.3331 170.246 94.8732 172.137 91.4294 174.044C84.9647 177.623 78.5839 181.358 72.2869 185.251C59.7577 192.997 47.621 201.334 35.8766 210.262C29.7884 214.893 23.8259 219.675 17.989 224.608C12.5601 229.192 7.24099 233.898 2.03171 238.727C0.917736 239.755 -0.745535 238.091 0.368408 237.063C1.74134 235.784 3.12996 234.512 4.51858 233.257C8.44125 229.709 12.4268 226.23 16.4751 222.819C23.8573 216.588 31.4306 210.597 39.1951 204.847C51.2692 195.901 63.7589 187.561 76.6643 179.828C83.1133 175.967 89.6511 172.268 96.2776 168.731C98.2784 167.664 100.303 166.62 102.35 165.631C106.996 163.287 111.824 161.321 116.785 159.753C123.814 157.478 131.251 156.748 138.588 157.611C145.672 158.641 152.497 161.003 158.703 164.572C171.883 171.941 182.105 183.336 192.053 194.457C193.058 195.587 191.402 197.258 190.39 196.128Z" fill="#E4E4E4"/>
<path d="M460.445 308.195L492.028 296.639L507.709 290.902C512.816 289.034 517.91 286.906 523.19 285.568C527.857 284.386 532.6 284.192 537.202 285.747C541.263 287.25 544.979 289.555 548.131 292.524C551.352 295.491 554.348 298.692 557.096 302.101C560.51 306.205 563.873 310.352 567.252 314.486C581.197 331.545 595.05 348.678 608.812 365.886C622.574 383.093 636.244 400.373 649.822 417.726C663.433 435.122 676.95 452.591 690.374 470.132C692.018 472.281 693.661 474.431 695.303 476.582C696.21 477.77 698.255 476.598 697.335 475.393C683.812 457.676 670.195 440.031 656.484 422.458C642.739 404.844 628.899 387.304 614.964 369.839C601.029 352.374 587 334.985 572.877 317.671C569.359 313.358 565.834 309.05 562.304 304.746C559.327 301.115 556.382 297.446 553.116 294.067C547.121 287.864 539.631 282.383 530.665 282.234C525.394 282.147 520.292 283.82 515.394 285.593C510.114 287.503 504.847 289.45 499.574 291.379L467.77 303.015L459.819 305.925C458.408 306.441 459.018 308.717 460.445 308.195Z" fill="#E4E4E4"/>
<path d="M148.851 177.913C132.801 169.661 112.248 171.277 97.499 181.586C125.631 186.441 153.455 192.937 180.828 201.041C169.461 194.378 160.569 183.937 148.851 177.913Z" fill="#F2F2F2"/>
<path d="M97.3411 181.558L94.2513 184.07C95.2965 183.191 96.3829 182.366 97.4991 181.586C97.4464 181.577 97.3938 181.567 97.3411 181.558Z" fill="#F2F2F2"/>
<path d="M546.942 308.31C543.833 304.525 540.472 300.561 535.822 299.023L531.48 299.194C564.529 357.612 609.164 408.657 662.646 449.197C624.078 402.235 585.51 355.272 546.942 308.31Z" fill="#F2F2F2"/>
<path d="M223.63 456.175C225.4 441.937 234.222 427.907 247.797 423.274C242.443 437.929 242.444 454.007 247.8 468.662C249.886 474.306 252.793 480.366 250.831 486.055C249.611 489.594 246.624 492.302 243.286 493.996C239.947 495.689 236.242 496.496 232.583 497.287L231.863 497.883C226.055 484.763 221.86 470.414 223.63 456.175Z" fill="#F0F0F0"/>
<path d="M247.931 423.543C240.026 432.404 235.113 443.531 233.889 455.344C233.58 457.882 233.674 460.453 234.166 462.963C234.724 465.392 235.922 467.627 237.636 469.436C239.2 471.155 240.998 472.732 242.117 474.801C242.674 475.869 243 477.042 243.071 478.244C243.143 479.447 242.96 480.651 242.535 481.777C241.547 484.612 239.599 486.922 237.617 489.115C235.415 491.551 233.09 494.045 232.154 497.274C232.041 497.665 231.441 497.466 231.554 497.075C233.182 491.458 238.633 488.268 241.232 483.209C242.445 480.848 242.954 478.108 241.817 475.616C240.823 473.437 238.969 471.809 237.371 470.082C235.673 468.342 234.427 466.212 233.742 463.879C233.124 461.403 232.932 458.84 233.174 456.299C233.627 450.57 234.977 444.949 237.176 439.64C239.652 433.567 243.148 427.962 247.513 423.069C247.783 422.766 248.2 423.242 247.931 423.543Z" fill="white"/>
<path d="M234.059 451.517C232.106 451.042 230.384 449.889 229.203 448.262C228.021 446.635 227.456 444.641 227.608 442.636C227.64 442.231 228.272 442.262 228.24 442.668C228.095 444.535 228.621 446.392 229.725 447.905C230.828 449.417 232.436 450.485 234.257 450.916C234.653 451.01 234.453 451.61 234.059 451.517Z" fill="white"/>
<path d="M236.728 468.669C240.256 466.561 242.861 463.201 244.022 459.258C244.137 458.868 244.737 459.066 244.622 459.457C243.406 463.558 240.689 467.049 237.012 469.234C236.662 469.442 236.379 468.876 236.728 468.669Z" fill="white"/>
<path d="M240.238 434.166C240.956 434.507 241.747 434.665 242.54 434.624C243.334 434.584 244.105 434.347 244.784 433.935C245.132 433.723 245.414 434.289 245.069 434.5C244.316 434.952 243.464 435.212 242.587 435.259C241.711 435.305 240.836 435.136 240.04 434.766C239.962 434.738 239.898 434.681 239.861 434.607C239.823 434.532 239.816 434.447 239.839 434.367C239.866 434.288 239.923 434.222 239.997 434.184C240.072 434.147 240.159 434.14 240.238 434.166Z" fill="white"/>
<path d="M289.175 448.706C288.961 448.844 288.748 448.983 288.534 449.127C285.676 451.008 282.974 453.118 280.457 455.436C280.259 455.612 280.062 455.794 279.87 455.975C273.865 461.625 268.96 468.341 265.406 475.781C263.994 478.744 262.81 481.809 261.863 484.951C260.555 489.29 259.483 494.099 256.895 497.648C256.63 498.021 256.341 498.378 256.031 498.715H232.646C232.593 498.689 232.539 498.667 232.486 498.641L231.552 498.683C231.59 498.518 231.632 498.347 231.67 498.182C231.691 498.086 231.718 497.989 231.739 497.893C231.755 497.829 231.771 497.765 231.782 497.707C231.787 497.685 231.792 497.664 231.798 497.648C231.808 497.589 231.824 497.536 231.835 497.482C232.07 496.527 232.312 495.572 232.561 494.616C232.561 494.611 232.561 494.611 232.566 494.606C234.393 487.308 237.08 480.253 240.569 473.588C240.676 473.39 240.782 473.188 240.9 472.99C242.516 470.04 244.37 467.227 246.443 464.579C247.584 463.132 248.796 461.745 250.077 460.421C253.392 457.007 257.223 454.136 261.431 451.913C269.818 447.484 279.528 445.786 288.492 448.492C288.721 448.562 288.946 448.631 289.175 448.706Z" fill="#F0F0F0"/>
<path d="M289.122 449.003C277.477 451.316 266.857 457.241 258.77 465.937C256.996 467.778 255.523 469.887 254.405 472.187C253.389 474.462 253.001 476.968 253.28 479.445C253.494 481.759 253.981 484.102 253.629 486.428C253.431 487.616 252.985 488.749 252.319 489.752C251.652 490.755 250.782 491.606 249.764 492.249C247.269 493.917 244.323 494.589 241.42 495.146C238.197 495.765 234.839 496.356 232.149 498.37C231.823 498.614 231.463 498.094 231.789 497.851C236.469 494.346 242.742 495.082 247.862 492.608C250.251 491.454 252.307 489.572 252.899 486.897C253.417 484.559 252.917 482.143 252.679 479.801C252.371 477.389 252.659 474.939 253.516 472.663C254.513 470.314 255.902 468.152 257.624 466.268C261.434 461.967 265.896 458.292 270.846 455.377C276.478 452.02 282.643 449.65 289.074 448.372C289.472 448.293 289.518 448.924 289.122 449.003Z" fill="white"/>
<path d="M261.21 462.983C259.935 461.428 259.255 459.47 259.291 457.46C259.326 455.449 260.075 453.517 261.404 452.008C261.674 451.703 262.159 452.108 261.889 452.413C260.649 453.816 259.952 455.616 259.923 457.489C259.893 459.361 260.534 461.182 261.729 462.623C261.989 462.937 261.467 463.295 261.21 462.983Z" fill="white"/>
<path d="M253.017 478.286C257.102 478.728 261.204 477.614 264.505 475.165C264.832 474.922 265.191 475.442 264.865 475.685C261.426 478.226 257.154 479.377 252.904 478.908C252.499 478.863 252.614 478.241 253.017 478.286Z" fill="white"/>
<path d="M276.586 452.851C276.954 453.556 277.491 454.158 278.148 454.604C278.806 455.049 279.564 455.325 280.355 455.405C280.76 455.445 280.645 456.067 280.242 456.027C279.369 455.934 278.532 455.629 277.804 455.139C277.076 454.648 276.48 453.986 276.066 453.211C276.021 453.142 276.005 453.057 276.019 452.975C276.034 452.894 276.08 452.821 276.146 452.771C276.215 452.724 276.3 452.706 276.383 452.721C276.465 452.736 276.538 452.783 276.586 452.851Z" fill="white"/>
<path d="M393.656 378.807C382.186 353.427 382.609 321.257 400.41 299.84C406.366 329.538 422.63 356.171 446.326 375.028C455.491 382.267 466.438 389.364 468.942 400.773C470.5 407.873 468.292 415.382 464.474 421.566C460.656 427.751 455.335 432.838 450.074 437.851L449.483 439.567C426.591 423.712 405.126 404.187 393.656 378.807Z" fill="#F0F0F0"/>
<path d="M400.906 300.15C396.772 322.831 399.888 346.237 409.81 367.046C411.866 371.563 414.622 375.728 417.975 379.387C421.357 382.846 425.602 385.336 430.271 386.599C434.601 387.863 439.176 388.655 443.123 390.95C445.125 392.155 446.851 393.77 448.186 395.689C449.522 397.608 450.436 399.787 450.87 402.085C452.101 407.781 451.212 413.579 450.146 419.22C448.962 425.482 447.634 431.968 449.349 438.263C449.557 439.026 448.362 439.304 448.154 438.543C445.17 427.59 450.972 416.787 450.161 405.775C449.782 400.636 447.854 395.581 443.449 392.604C439.598 390 434.881 389.18 430.486 387.937C425.913 386.773 421.695 384.506 418.2 381.334C414.672 377.858 411.761 373.806 409.591 369.352C404.547 359.404 401.098 348.723 399.37 337.703C397.329 325.136 397.452 312.313 399.733 299.788C399.874 299.012 401.046 299.38 400.906 300.15Z" fill="white"/>
<path d="M406.221 360.534C402.505 361.725 398.486 361.556 394.883 360.057C391.28 358.559 388.327 355.827 386.551 352.352C386.194 351.647 387.272 351.059 387.629 351.765C389.277 355.004 392.028 357.548 395.386 358.937C398.744 360.326 402.488 360.468 405.942 359.338C406.693 359.094 406.967 360.29 406.221 360.534Z" fill="white"/>
<path d="M427.991 386.247C431.705 379.184 432.62 370.982 430.556 363.274C430.351 362.51 431.546 362.232 431.751 362.995C433.884 371.02 432.914 379.554 429.034 386.895C428.663 387.594 427.623 386.942 427.991 386.247Z" fill="white"/>
<path d="M398.907 325.535C400.44 325.374 401.91 324.834 403.184 323.964C404.458 323.094 405.495 321.921 406.204 320.551C406.565 319.847 407.605 320.5 407.246 321.199C406.456 322.709 405.309 324.003 403.904 324.967C402.498 325.932 400.879 326.537 399.186 326.73C399.028 326.762 398.863 326.732 398.726 326.647C398.59 326.562 398.49 326.428 398.449 326.272C398.412 326.114 398.44 325.948 398.526 325.809C398.612 325.671 398.748 325.573 398.907 325.535Z" fill="white"/>
<path d="M494.683 300.089C494.47 300.535 494.257 300.981 494.049 301.436C491.215 307.445 488.874 313.674 487.048 320.063C486.899 320.554 486.756 321.055 486.621 321.55C482.388 336.988 481.056 353.078 482.694 369.002C483.352 375.338 484.49 381.615 486.1 387.778C488.323 396.29 491.411 405.342 490.714 413.841C490.652 414.728 490.534 415.611 490.362 416.484L451.622 440.154C451.507 440.164 451.396 440.183 451.281 440.192L449.777 441.208C449.672 440.896 449.57 440.57 449.465 440.258C449.403 440.077 449.35 439.891 449.288 439.711C449.249 439.588 449.211 439.466 449.17 439.358C449.157 439.317 449.144 439.276 449.137 439.245C449.095 439.137 449.068 439.032 449.031 438.933C448.454 437.112 447.888 435.285 447.334 433.45C447.329 433.441 447.329 433.441 447.332 433.427C443.147 419.437 440.093 404.974 439.33 390.508C439.307 390.072 439.279 389.629 439.274 389.182C438.966 382.66 439.192 376.123 439.949 369.637C440.375 366.087 440.98 362.56 441.763 359.071C443.802 350.06 447.245 341.426 451.966 333.485C461.38 317.657 475.749 305.017 493.336 300.427C493.786 300.309 494.228 300.197 494.683 300.089Z" fill="#F0F0F0"/>
<path d="M494.896 300.634C477.945 316.254 466.345 336.819 461.743 359.409C460.666 364.255 460.36 369.24 460.835 374.181C461.453 378.979 463.344 383.524 466.312 387.344C469.008 390.961 472.184 394.349 473.954 398.559C474.828 400.727 475.234 403.056 475.145 405.392C475.057 407.729 474.475 410.02 473.439 412.115C470.993 417.404 466.794 421.499 462.548 425.36C457.833 429.648 452.869 434.026 450.449 440.086C450.156 440.82 449.034 440.322 449.327 439.589C453.536 429.046 464.671 423.915 470.652 414.634C473.442 410.304 474.945 405.106 473.22 400.076C471.712 395.678 468.439 392.181 465.678 388.542C462.728 384.859 460.725 380.508 459.843 375.871C459.118 370.97 459.232 365.982 460.181 361.119C462.141 350.138 465.815 339.533 471.069 329.693C477.002 318.43 484.818 308.265 494.178 299.638C494.758 299.105 495.472 300.104 494.896 300.634Z" fill="white"/>
<path d="M462.797 352.048C459.113 350.761 456.006 348.206 454.031 344.84C452.057 341.473 451.343 337.514 452.017 333.669C452.156 332.891 453.37 333.071 453.231 333.849C452.596 337.429 453.262 341.117 455.107 344.248C456.953 347.379 459.856 349.748 463.294 350.926C464.041 351.182 463.54 352.303 462.797 352.048Z" fill="white"/>
<path d="M464.704 385.69C471.919 382.288 477.588 376.29 480.579 368.893C480.874 368.159 481.996 368.657 481.701 369.389C478.574 377.081 472.663 383.311 465.146 386.835C464.43 387.171 463.991 386.024 464.704 385.69Z" fill="white"/>
<path d="M478.022 319.699C479.344 320.494 480.842 320.948 482.383 321.02C483.923 321.093 485.458 320.782 486.848 320.114C487.56 319.77 487.998 320.917 487.29 321.259C485.751 321.99 484.056 322.331 482.353 322.255C480.651 322.179 478.993 321.686 477.525 320.821C477.38 320.751 477.267 320.629 477.209 320.478C477.151 320.328 477.152 320.161 477.212 320.011C477.279 319.863 477.401 319.747 477.553 319.689C477.704 319.63 477.873 319.634 478.022 319.699Z" fill="white"/>
<path d="M569.19 408.195L612.766 375.101L634.006 396.348L563.017 444.943L569.19 408.195Z" fill="#3F3D56"/>
<path d="M528.548 499.321H379.485L384.713 482.376C417.116 470.642 398.915 445.421 429.738 430.005C505.127 392.298 534.314 279.775 523.274 235.295L572.678 233.205C572.678 233.205 640.906 427.026 528.548 499.321Z" fill="#3F3D56"/>
<path d="M655.805 419.667C651.353 423.584 645.656 425.794 639.728 425.905C633.8 426.016 628.025 424.02 623.429 420.273L623.332 420.193L623.329 420.069C623.274 417.993 622.951 415.932 622.366 413.94C622.337 415.374 622.128 416.799 621.744 418.182L621.619 418.647L621.284 418.301C620.995 418.003 620.715 417.7 620.452 417.401C618.906 415.646 617.611 413.684 616.604 411.572C611.784 401.655 604.8 392.947 596.167 386.09C594.626 384.836 593.192 383.456 591.88 381.963C586.337 375.655 583.22 367.579 583.087 359.181C582.954 350.784 585.813 342.613 591.153 336.132C596.493 329.651 603.965 325.283 612.231 323.811C620.497 322.338 629.017 323.857 636.265 328.096L636.486 328.225L636.372 328.454C635.532 330.197 634.424 331.796 633.087 333.194C634.925 332.2 636.626 330.971 638.146 329.537L638.306 329.386L638.488 329.511C640.87 331.159 643.04 333.092 644.952 335.267L645.158 335.503C646.618 337.173 648.412 338.516 650.426 339.446C652.439 340.375 654.625 340.87 656.842 340.897C660.46 340.958 664.021 341.802 667.281 343.371C670.541 344.94 673.422 347.197 675.727 349.987C678.032 352.776 679.705 356.032 680.632 359.53C681.559 363.028 681.717 366.686 681.096 370.251L681.068 370.417L680.907 370.465C678.096 371.431 675.115 371.803 672.153 371.558C674.626 372.636 677.261 373.296 679.95 373.511L680.298 373.539L680.187 373.87C678.786 378.078 676.293 381.838 672.963 384.766L672.868 384.849C672.834 384.878 672.801 384.908 672.767 384.937C670.286 387.075 668.256 389.686 666.797 392.619C665.337 395.552 664.478 398.746 664.27 402.015C664.105 405.373 663.271 408.664 661.817 411.695C660.364 414.726 658.32 417.437 655.805 419.667Z" fill="#169976"/>
<path opacity="0.15" d="M660.365 411.612C660.32 412.515 660.226 413.414 660.083 414.306C662.524 410.556 663.929 406.226 664.154 401.757C664.187 401.073 664.259 400.391 664.355 399.713C661.983 403.25 660.605 407.36 660.365 411.612Z" fill="black"/>
<path opacity="0.15" d="M668.248 381.155C670.237 382.017 672.333 382.609 674.479 382.917C675.306 382.044 676.069 381.113 676.762 380.131C674.023 381.047 671.126 381.396 668.248 381.155Z" fill="black"/>
<path opacity="0.15" d="M677.43 372.926C677.652 375.092 677.592 377.277 677.252 379.428C678.44 377.62 679.388 375.665 680.071 373.612L680.182 373.281L679.834 373.253C679.028 373.184 678.226 373.075 677.43 372.926Z" fill="black"/>
<path opacity="0.15" d="M675.112 349.143C672.806 346.525 669.98 344.418 666.815 342.953C663.649 341.489 660.213 340.701 656.726 340.639C654.509 340.611 652.323 340.117 650.31 339.187C648.296 338.258 646.501 336.915 645.042 335.245L644.836 335.009C642.924 332.834 640.753 330.901 638.372 329.253L638.19 329.128L638.03 329.279C636.51 330.713 634.809 331.942 632.971 332.936C634.308 331.538 635.416 329.938 636.256 328.195L636.37 327.967L636.15 327.837C631.344 325.024 625.942 323.387 620.384 323.06C614.826 322.733 609.269 323.725 604.167 325.955C599.065 328.185 594.562 331.59 591.026 335.892C587.49 340.195 585.021 345.272 583.821 350.711C586.133 346.647 589.229 343.083 592.928 340.225C596.628 337.367 600.858 335.272 605.373 334.061C609.887 332.85 614.598 332.548 619.23 333.171C623.863 333.794 628.326 335.331 632.36 337.693L632.581 337.822L632.467 338.051C631.627 339.793 630.518 341.393 629.181 342.791C631.02 341.797 632.721 340.568 634.241 339.134L634.401 338.983L634.583 339.108C636.964 340.756 639.135 342.689 641.047 344.864L641.253 345.1C642.712 346.77 644.507 348.113 646.52 349.043C648.534 349.972 650.72 350.466 652.937 350.494C658.734 350.592 664.318 352.698 668.736 356.454C673.154 360.21 676.133 365.382 677.165 371.09C678.391 370.87 679.601 370.575 680.791 370.207L680.952 370.158L680.98 369.993C681.631 366.3 681.441 362.507 680.425 358.898C679.409 355.288 677.593 351.954 675.112 349.143Z" fill="black"/>
<path d="M727.851 245.964C727.849 265.061 721.077 283.539 708.739 298.112C696.401 312.685 679.296 322.409 660.466 325.555L660.067 325.62L659.759 325.363C654.626 321.08 648.958 317.482 642.899 314.657C646.304 317.779 649.304 321.316 651.828 325.185L652.687 326.476L651.139 326.55C649.804 326.616 648.476 326.648 647.195 326.648C639.663 326.655 632.167 325.615 624.922 323.559C592.009 314.192 556.665 312.59 519.874 318.798C513.565 319.858 507.179 320.391 500.782 320.391C438.049 320.391 387.012 269.326 387.012 206.56C386.978 182.629 394.496 159.298 408.496 139.893C422.496 120.487 442.262 105.997 464.977 98.4886L465.759 98.2295L466.068 98.9931C468.495 104.729 470.004 110.812 470.539 117.019C472.047 110.46 472.693 103.732 472.46 97.0064L472.436 96.2962L473.126 96.1232C482.172 93.868 491.459 92.7284 500.782 92.7298L501.791 92.734C508.93 92.7552 515.994 91.271 522.521 88.3783C529.049 85.4855 534.894 81.2492 539.675 75.9453C547.514 67.3262 557.127 60.5082 567.852 55.9604C578.577 51.4126 590.16 49.243 601.804 49.6008C613.447 49.9585 624.875 52.8352 635.301 58.0329C645.727 63.2306 654.903 70.6259 662.199 79.71L662.539 80.1307L662.315 80.6237C657.602 91.0137 652.468 98.583 646.34 104.118C654.204 100.428 661.402 95.4597 667.643 89.4151L668.448 88.6336L669.013 89.6039C676.204 101.94 679.99 115.966 679.985 130.246L679.984 130.653C679.983 130.797 679.983 130.942 679.983 131.085C679.983 152.93 688.427 173.634 703.19 187.954C710.954 195.494 717.135 204.509 721.37 214.47C725.605 224.432 727.809 235.139 727.851 245.964Z" fill="#169976"/>
<g opacity="0.15">
<path d="M629.244 55.2906C626.463 59.9073 623.041 64.1061 619.081 67.7614C624.751 65.0985 630.082 61.7656 634.959 57.8341C633.088 56.9121 631.183 56.0643 629.244 55.2906Z" fill="black"/>
<path d="M675.931 151.597C680.318 155.855 684.208 160.596 687.529 165.73C682.532 154.866 679.957 143.044 679.983 131.085C679.983 130.941 679.983 130.797 679.984 130.653L679.985 130.246C679.99 115.966 676.204 101.94 669.013 89.6038L668.448 88.6335L667.643 89.415C663.196 93.7146 658.258 97.4756 652.932 100.62C654.305 120.264 662.503 138.572 675.931 151.597Z" fill="black"/>
<path d="M652.726 93.8891L652.725 94.2961C652.724 94.4398 652.724 94.5845 652.724 94.7283C652.724 95.5202 652.738 96.3102 652.761 97.099C656.559 91.9872 659.764 86.4599 662.315 80.6236L662.539 80.1306L662.199 79.71C657.944 74.4131 653.042 69.6705 647.608 65.5931C650.991 74.6431 652.725 84.2268 652.726 93.8891Z" fill="black"/>
<path d="M703.19 187.954C699.31 184.178 695.862 179.982 692.91 175.443C698.196 186.709 700.803 199.046 700.525 211.488C700.248 223.93 697.094 236.139 691.311 247.158C685.528 258.177 677.273 267.707 667.192 275C657.111 282.294 645.479 287.153 633.207 289.198L632.809 289.263L632.501 289.006C627.367 284.723 621.7 281.125 615.641 278.3C619.046 281.422 622.045 284.959 624.57 288.828L625.429 290.119L623.881 290.194C622.545 290.259 621.217 290.291 619.936 290.291C612.405 290.298 604.909 289.258 597.663 287.202C564.75 277.835 529.407 276.233 492.615 282.441C486.306 283.501 479.92 284.034 473.523 284.034C445.639 284.055 418.726 273.789 397.936 255.2C407.158 274.685 421.717 291.154 439.921 302.694C458.126 314.233 479.23 320.37 500.782 320.391C507.179 320.391 513.565 319.858 519.874 318.798C556.665 312.59 592.009 314.192 624.922 323.559C632.167 325.615 639.663 326.654 647.195 326.648C648.476 326.648 649.804 326.615 651.14 326.55L652.687 326.476L651.828 325.185C649.304 321.316 646.304 317.779 642.899 314.657C648.958 317.482 654.626 321.08 659.759 325.363L660.067 325.62L660.466 325.555C675.202 323.103 688.968 316.602 700.226 306.78C711.484 296.957 719.792 284.198 724.223 269.926C728.654 255.655 729.034 240.433 725.32 225.958C721.606 211.484 713.944 198.326 703.19 187.954Z" fill="black"/>
</g>
<path d="M323.599 225.545C319.257 220.866 317.006 213.844 319.314 207.892C322.772 213.912 328.247 218.514 334.77 220.885C337.289 221.79 340.185 222.534 341.56 224.831C342.355 226.317 342.55 228.051 342.104 229.676C341.655 231.282 341.002 232.824 340.161 234.265L340.157 234.681C334.027 232.904 327.94 230.225 323.599 225.545Z" fill="#169976"/>
<path d="M539.245 361.278C534.903 356.598 532.652 349.576 534.96 343.624C538.418 349.644 543.893 354.247 550.416 356.617C552.935 357.522 555.831 358.267 557.206 360.564C558.001 362.049 558.196 363.783 557.75 365.408C557.301 367.015 556.648 368.557 555.807 369.997L555.804 370.413C549.674 368.636 543.586 365.957 539.245 361.278Z" fill="#169976"/>
<path d="M640.93 448.882C637.897 443.265 637.474 435.902 641.198 430.718C643.04 437.411 647.189 443.238 652.912 447.166C655.124 448.673 657.742 450.118 658.499 452.686C658.897 454.324 658.652 456.051 657.813 457.513C656.977 458.956 655.959 460.285 654.784 461.469L654.677 461.871C649.186 458.616 643.963 454.499 640.93 448.882Z" fill="#169976"/>
<path d="M714.226 340.417C711.193 334.8 710.769 327.437 714.493 322.253C716.335 328.946 720.484 334.773 726.207 338.701C728.42 340.208 731.037 341.653 731.794 344.222C732.192 345.859 731.947 347.587 731.109 349.048C730.272 350.491 729.254 351.82 728.08 353.004L727.972 353.406C722.482 350.152 717.258 346.034 714.226 340.417Z" fill="#169976"/>
<path d="M235.079 382.228C232.046 376.61 231.623 369.248 235.347 364.063C237.189 370.757 241.338 376.583 247.061 380.511C249.273 382.018 251.891 383.464 252.648 386.032C253.046 387.669 252.801 389.397 251.962 390.858C251.126 392.301 250.108 393.631 248.933 394.815L248.826 395.217C243.335 391.962 238.112 387.845 235.079 382.228Z" fill="#E6E6E6"/>
<path d="M508.948 436.022C511.582 414.834 524.708 393.959 544.908 387.064C536.942 408.872 536.943 432.795 544.912 454.601C548.016 463 552.343 472.018 549.423 480.482C547.607 485.749 543.163 489.779 538.195 492.299C533.228 494.818 527.714 496.019 522.27 497.196L521.199 498.082C512.556 478.561 506.314 457.209 508.948 436.022Z" fill="#E6E6E6"/>
<path d="M545.108 387.465C533.345 400.649 526.034 417.207 524.213 434.784C523.754 438.562 523.893 442.388 524.625 446.121C525.455 449.736 527.238 453.061 529.788 455.753C532.115 458.311 534.792 460.658 536.457 463.737C537.286 465.326 537.769 467.072 537.876 468.861C537.983 470.65 537.711 472.441 537.078 474.117C535.608 478.335 532.71 481.773 529.76 485.037C526.484 488.66 523.024 492.372 521.632 497.176C521.463 497.758 520.57 497.462 520.738 496.881C523.161 488.523 531.272 483.776 535.14 476.248C536.944 472.735 537.702 468.657 536.01 464.949C534.53 461.707 531.772 459.284 529.394 456.715C526.868 454.125 525.014 450.957 523.994 447.485C523.075 443.801 522.789 439.986 523.148 436.206C523.823 427.682 525.832 419.317 529.104 411.417C532.788 402.38 537.99 394.041 544.486 386.759C544.888 386.308 545.508 387.017 545.108 387.465Z" fill="white"/>
<path d="M524.466 429.09C521.56 428.384 518.998 426.667 517.24 424.247C515.482 421.826 514.641 418.859 514.867 415.876C514.915 415.272 515.855 415.318 515.807 415.923C515.591 418.701 516.375 421.464 518.017 423.715C519.658 425.966 522.051 427.555 524.761 428.196C525.35 428.337 525.052 429.229 524.466 429.09Z" fill="white"/>
<path d="M528.437 454.612C533.687 451.476 537.563 446.476 539.291 440.609C539.462 440.028 540.355 440.324 540.184 440.904C538.374 447.006 534.331 452.201 528.86 455.453C528.339 455.762 527.918 454.92 528.437 454.612Z" fill="white"/>
<path d="M533.661 403.272C534.729 403.779 535.906 404.014 537.086 403.954C538.267 403.894 539.414 403.541 540.425 402.928C540.943 402.612 541.363 403.455 540.848 403.769C539.728 404.441 538.461 404.828 537.156 404.898C535.852 404.967 534.551 404.715 533.366 404.165C533.25 404.123 533.154 404.038 533.099 403.927C533.043 403.817 533.032 403.69 533.067 403.571C533.106 403.453 533.191 403.355 533.302 403.299C533.414 403.243 533.542 403.233 533.661 403.272Z" fill="white"/>
<path d="M606.478 424.907C606.161 425.113 605.843 425.32 605.526 425.534C601.271 428.333 597.252 431.472 593.506 434.921C593.212 435.184 592.918 435.454 592.633 435.724C583.697 444.13 576.399 454.124 571.11 465.196C569.009 469.603 567.247 474.164 565.838 478.839C563.893 485.296 562.297 492.452 558.447 497.733C558.051 498.288 557.621 498.819 557.16 499.321H522.363C522.284 499.282 522.205 499.25 522.125 499.21L520.736 499.274C520.792 499.027 520.855 498.773 520.911 498.527C520.942 498.384 520.982 498.241 521.014 498.098C521.037 498.003 521.061 497.908 521.077 497.82C521.085 497.788 521.093 497.757 521.101 497.733C521.117 497.646 521.141 497.566 521.157 497.487C521.506 496.065 521.866 494.644 522.236 493.222C522.236 493.214 522.236 493.214 522.244 493.206C525.095 482.381 528.873 471.7 534.153 461.931C534.312 461.638 534.47 461.336 534.645 461.042C537.049 456.652 539.808 452.466 542.894 448.526C544.591 446.374 546.395 444.309 548.301 442.339C553.234 437.259 558.935 432.987 565.195 429.68C577.675 423.088 592.124 420.563 605.462 424.589C605.803 424.693 606.137 424.796 606.478 424.907Z" fill="#E6E6E6"/>
<path d="M606.4 425.349C589.072 428.791 573.27 437.608 561.236 450.547C558.596 453.286 556.405 456.424 554.742 459.846C553.229 463.232 552.651 466.962 553.067 470.647C553.386 474.09 554.11 477.576 553.587 481.037C553.292 482.805 552.628 484.491 551.636 485.984C550.645 487.476 549.35 488.743 547.835 489.7C544.122 492.182 539.74 493.182 535.42 494.011C530.623 494.931 525.627 495.811 521.624 498.808C521.139 499.171 520.604 498.397 521.088 498.034C528.053 492.82 537.386 493.914 545.005 490.233C548.56 488.516 551.62 485.716 552.5 481.736C553.271 478.256 552.526 474.661 552.174 471.177C551.715 467.588 552.142 463.941 553.418 460.556C554.901 457.06 556.968 453.842 559.531 451.04C565.2 444.64 571.839 439.171 579.206 434.835C587.586 429.838 596.759 426.313 606.328 424.41C606.92 424.293 606.989 425.232 606.4 425.349Z" fill="white"/>
<path d="M564.866 446.152C562.97 443.838 561.958 440.925 562.011 437.933C562.064 434.941 563.178 432.066 565.155 429.82C565.556 429.367 566.279 429.97 565.877 430.424C564.032 432.512 562.995 435.19 562.951 437.976C562.907 440.762 563.861 443.472 565.639 445.616C566.025 446.083 565.249 446.616 564.866 446.152Z" fill="white"/>
<path d="M552.676 468.922C558.755 469.58 564.858 467.922 569.77 464.278C570.256 463.917 570.791 464.691 570.305 465.052C565.187 468.834 558.832 470.547 552.508 469.848C551.905 469.781 552.076 468.855 552.676 468.922Z" fill="white"/>
<path d="M587.746 431.075C588.293 432.124 589.092 433.02 590.071 433.683C591.05 434.346 592.178 434.756 593.354 434.875C593.958 434.935 593.786 435.86 593.186 435.801C591.887 435.663 590.642 435.209 589.559 434.479C588.476 433.749 587.588 432.764 586.973 431.611C586.906 431.507 586.881 431.382 586.903 431.26C586.925 431.139 586.993 431.03 587.092 430.957C587.195 430.886 587.321 430.859 587.444 430.881C587.566 430.904 587.675 430.973 587.746 431.075Z" fill="white"/>
<path d="M332.322 438.926L303.441 416.992L289.364 431.074L336.414 463.281L332.322 438.926Z" fill="#3F3D56"/>
<path d="M359.258 499.321H458.051L454.586 488.091C433.111 480.314 445.174 463.598 424.746 453.381C374.78 428.39 355.437 353.814 362.753 324.334L330.01 322.949C330.01 322.949 284.791 451.406 359.258 499.321Z" fill="#3F3D56"/>
<path d="M269.306 434.83C269.168 432.664 268.599 430.546 267.631 428.603C266.664 426.659 265.319 424.928 263.674 423.512C263.652 423.492 263.63 423.472 263.608 423.453L263.544 423.398C261.337 421.457 259.685 418.965 258.757 416.177L258.684 415.957L258.914 415.939C260.696 415.796 262.442 415.358 264.081 414.644C262.118 414.807 260.143 414.56 258.28 413.92L258.173 413.888L258.154 413.778C257.743 411.415 257.847 408.991 258.462 406.673C259.076 404.354 260.185 402.196 261.713 400.347C263.24 398.499 265.15 397.003 267.311 395.963C269.471 394.923 271.831 394.364 274.229 394.323C275.698 394.305 277.147 393.977 278.482 393.361C279.816 392.745 281.005 391.855 281.973 390.748L282.109 390.592C283.376 389.15 284.815 387.869 286.393 386.777L286.514 386.694L286.62 386.794C287.628 387.745 288.755 388.559 289.973 389.218C289.087 388.292 288.352 387.231 287.796 386.076L287.72 385.925L287.866 385.839C292.67 383.03 298.317 382.023 303.795 382.999C309.274 383.975 314.226 386.87 317.765 391.165C321.304 395.46 323.2 400.876 323.111 406.441C323.023 412.007 320.957 417.36 317.284 421.54C316.414 422.53 315.464 423.444 314.442 424.276C308.721 428.82 304.092 434.592 300.897 441.164C300.23 442.564 299.372 443.864 298.347 445.027C298.173 445.226 297.987 445.426 297.796 445.624L297.574 445.853L297.491 445.545C297.236 444.629 297.098 443.684 297.078 442.733C296.691 444.054 296.477 445.419 296.44 446.795L296.438 446.878L296.374 446.931C293.992 448.876 291.116 450.12 288.068 450.525C285.02 450.931 281.919 450.481 279.112 449.226C276.305 447.971 273.901 445.96 272.169 443.418C270.438 440.876 269.447 437.903 269.306 434.83Z" fill="#E6E6E6"/>
<path opacity="0.15" d="M271.894 441.191C271.924 441.789 271.986 442.385 272.081 442.976C270.463 440.491 269.532 437.621 269.383 434.659C269.361 434.206 269.313 433.754 269.25 433.304C270.821 435.649 271.735 438.372 271.894 441.191Z" fill="black"/>
<path opacity="0.15" d="M266.67 421.005C265.351 421.576 263.962 421.969 262.54 422.173C261.992 421.594 261.486 420.977 261.027 420.326C262.842 420.933 264.762 421.164 266.67 421.005Z" fill="black"/>
<path opacity="0.15" d="M260.584 415.551C260.437 416.986 260.477 418.435 260.702 419.86C259.915 418.662 259.287 417.366 258.834 416.005L258.76 415.786L258.991 415.768C259.525 415.722 260.057 415.65 260.584 415.551Z" fill="black"/>
<path opacity="0.15" d="M262.12 399.788C263.649 398.054 265.521 396.657 267.619 395.686C269.717 394.716 271.995 394.193 274.306 394.152C275.775 394.134 277.224 393.806 278.558 393.19C279.893 392.574 281.082 391.684 282.05 390.577L282.186 390.421C283.453 388.979 284.892 387.698 286.47 386.606L286.591 386.523L286.697 386.623C287.704 387.574 288.832 388.388 290.05 389.047C289.164 388.12 288.429 387.06 287.873 385.905L287.797 385.753L287.943 385.668C291.128 383.803 294.708 382.718 298.392 382.501C302.076 382.285 305.759 382.942 309.14 384.42C312.522 385.898 315.506 388.155 317.849 391.006C320.193 393.858 321.829 397.223 322.625 400.827C321.092 398.134 319.041 395.772 316.589 393.878C314.137 391.984 311.333 390.595 308.341 389.793C305.349 388.99 302.227 388.789 299.157 389.203C296.086 389.616 293.128 390.634 290.455 392.199L290.308 392.285L290.384 392.437C290.94 393.592 291.675 394.652 292.561 395.578C291.343 394.92 290.216 394.105 289.208 393.155L289.102 393.055L288.981 393.138C287.403 394.23 285.965 395.511 284.697 396.952L284.561 397.109C283.594 398.215 282.404 399.106 281.07 399.722C279.736 400.338 278.286 400.665 276.817 400.684C272.975 400.749 269.274 402.145 266.346 404.634C263.418 407.123 261.443 410.551 260.759 414.334C259.947 414.188 259.145 413.993 258.357 413.749L258.25 413.717L258.231 413.607C257.8 411.159 257.926 408.646 258.599 406.253C259.272 403.861 260.476 401.651 262.12 399.788Z" fill="black"/>
<path d="M243.511 292.958C253.295 283.467 258.892 269.745 258.892 255.267C258.892 255.172 258.892 255.076 258.891 254.981L258.891 254.711C258.887 245.247 261.396 235.951 266.162 227.775L266.537 227.132L267.071 227.65C271.206 231.656 275.977 234.949 281.189 237.395C277.128 233.726 273.725 228.709 270.602 221.823L270.453 221.496L270.678 221.218C275.514 215.197 281.596 210.296 288.506 206.851C295.416 203.406 302.99 201.499 310.706 201.262C318.423 201.025 326.1 202.463 333.208 205.477C340.316 208.491 346.688 213.01 351.883 218.722C355.052 222.238 358.926 225.045 363.252 226.963C367.578 228.88 372.26 229.864 376.991 229.849L377.66 229.847C383.839 229.846 389.994 230.601 395.99 232.096L396.447 232.21L396.431 232.681C396.277 237.139 396.705 241.598 397.704 245.944C398.059 241.831 399.059 237.8 400.667 233.998L400.872 233.492L401.391 233.663C418.396 239.308 432.837 250.824 442.128 266.149C451.42 281.474 454.954 299.607 452.099 317.301C449.244 334.995 440.186 351.095 426.547 362.718C412.907 374.34 395.577 380.726 377.66 380.732C373.42 380.733 369.188 380.379 365.007 379.676C340.623 375.562 317.198 376.624 295.384 382.832C290.582 384.195 285.614 384.884 280.623 384.879C279.774 384.879 278.894 384.858 278.008 384.815L276.983 384.765L277.552 383.91C279.225 381.346 281.213 379.001 283.47 376.932C279.454 378.804 275.698 381.189 272.296 384.028L272.091 384.198L271.827 384.155C262.06 382.53 252.937 378.222 245.476 371.711C238.014 365.201 232.508 356.745 229.571 347.286C226.634 337.828 226.383 327.739 228.844 318.146C231.306 308.553 236.384 299.832 243.511 292.958Z" fill="#E6E6E6"/>
<g opacity="0.15">
<path d="M292.52 205.033C294.363 208.093 296.631 210.876 299.255 213.298C295.498 211.534 291.965 209.325 288.732 206.719C289.972 206.108 291.235 205.546 292.52 205.033Z" fill="black"/>
<path d="M261.577 268.862C258.67 271.684 256.091 274.826 253.891 278.229C257.203 271.028 258.909 263.193 258.892 255.267C258.892 255.172 258.892 255.076 258.891 254.981L258.891 254.711C258.887 245.247 261.396 235.951 266.162 227.775L266.537 227.132L267.071 227.65C270.018 230.499 273.29 232.992 276.82 235.076C275.911 248.095 270.477 260.229 261.577 268.862Z" fill="black"/>
<path d="M276.957 230.615L276.957 230.885C276.958 230.98 276.958 231.076 276.958 231.171C276.958 231.696 276.949 232.22 276.934 232.742C274.416 229.354 272.292 225.691 270.602 221.823L270.453 221.496L270.678 221.218C273.498 217.707 276.747 214.564 280.349 211.861C278.106 217.859 276.957 224.211 276.957 230.615Z" fill="black"/>
<path d="M243.511 292.958C246.083 290.455 248.368 287.674 250.325 284.666C246.821 292.132 245.093 300.309 245.277 308.555C245.461 316.802 247.551 324.893 251.384 332.196C255.217 339.499 260.688 345.815 267.369 350.649C274.05 355.483 281.76 358.704 289.893 360.059L290.157 360.102L290.362 359.932C293.764 357.093 297.52 354.708 301.536 352.836C299.279 354.905 297.291 357.249 295.618 359.814L295.049 360.669L296.074 360.719C296.96 360.762 297.84 360.783 298.689 360.783C303.681 360.788 308.648 360.099 313.451 358.736C335.264 352.528 358.689 351.466 383.073 355.58C387.254 356.283 391.486 356.637 395.726 356.636C414.207 356.651 432.044 349.846 445.823 337.526C439.711 350.44 430.062 361.355 417.996 369.003C405.931 376.651 391.944 380.719 377.66 380.732C373.42 380.733 369.188 380.379 365.007 379.676C340.623 375.562 317.198 376.624 295.384 382.832C290.582 384.195 285.614 384.884 280.623 384.879C279.774 384.879 278.894 384.858 278.008 384.815L276.983 384.765L277.552 383.91C279.225 381.345 281.213 379.001 283.47 376.932C279.454 378.804 275.698 381.189 272.296 384.028L272.091 384.198L271.827 384.155C262.06 382.53 252.937 378.222 245.476 371.711C238.014 365.201 232.508 356.745 229.571 347.286C226.634 337.828 226.383 327.739 228.844 318.146C231.306 308.553 236.384 299.832 243.511 292.958Z" fill="black"/>
</g>
<path d="M38.0217 441.533C29.3825 441.532 21.0235 438.466 14.431 432.881C7.83844 427.296 3.43957 419.553 2.01645 411.029L1.98702 410.848L2.10329 410.709C4.04073 408.385 5.66865 405.82 6.94631 403.077C5.53408 404.618 3.93413 405.976 2.18395 407.119L1.59981 407.508L1.56612 406.807C1.5367 406.202 1.52199 405.601 1.52199 405.021C1.51904 401.612 1.98936 398.219 2.91947 394.939C7.157 380.04 7.8816 364.041 5.07335 347.386C4.5935 344.53 4.35239 341.639 4.35254 338.744C4.35685 326.506 8.71577 314.669 16.6488 305.353C24.5818 296.038 35.5708 289.851 47.6481 287.901C59.7254 285.951 72.1022 288.365 82.5624 294.711C93.0226 301.057 100.883 310.921 104.736 322.536L104.853 322.89L104.508 323.029C101.913 324.128 99.1609 324.811 96.3534 325.053C99.3204 325.736 102.364 326.028 105.406 325.923L105.728 325.912L105.806 326.224C106.826 330.319 107.342 334.523 107.341 338.744L107.339 339.2C107.33 342.432 108.001 345.63 109.31 348.585C110.618 351.539 112.535 354.185 114.934 356.349C118.833 359.898 121.917 364.25 123.975 369.105C126.032 373.96 127.013 379.203 126.852 384.474C126.69 389.745 125.388 394.918 123.037 399.637C120.686 404.357 117.34 408.511 113.231 411.813L113.041 411.967L112.818 411.866C108.117 409.732 104.693 407.408 102.189 404.634C103.859 408.194 106.106 411.453 108.841 414.278L109.194 414.642L108.755 414.898C103.175 418.153 96.8297 419.867 90.3696 419.865L90.1855 419.864C90.1205 419.864 90.055 419.864 89.99 419.864C85.2187 419.813 80.4855 420.717 76.0678 422.521C71.6502 424.325 67.6371 426.993 64.264 430.369C60.8532 433.884 56.7749 436.682 52.2686 438.599C47.7622 440.516 42.9185 441.513 38.0217 441.533Z" fill="#E4E4E4"/>
<path d="M25.1048 499.061C24.9463 499.061 24.7932 499.003 24.6735 498.9C24.5539 498.796 24.4758 498.652 24.4534 498.495C24.4254 498.298 21.6841 478.521 24.1461 452.236C26.4198 427.961 33.7215 392.997 55.5946 364.282C55.647 364.213 55.7125 364.155 55.7872 364.112C55.862 364.068 55.9447 364.039 56.0305 364.028C56.1163 364.016 56.2035 364.022 56.2872 364.044C56.3709 364.066 56.4494 364.104 56.5183 364.157C56.5871 364.209 56.6449 364.275 56.6885 364.35C56.732 364.424 56.7603 364.507 56.7719 364.593C56.7834 364.679 56.7779 364.766 56.7557 364.85C56.7335 364.933 56.6951 365.012 56.6425 365.081C34.9584 393.548 27.7156 428.256 25.4579 452.359C23.0102 478.491 25.73 498.114 25.7578 498.309C25.771 498.403 25.764 498.498 25.7372 498.588C25.7105 498.679 25.6646 498.763 25.6027 498.834C25.5407 498.905 25.4642 498.962 25.3784 499.002C25.2925 499.041 25.1992 499.061 25.1048 499.061Z" fill="#3F3D56"/>
<path d="M36.039 402.252C35.8999 402.252 35.7643 402.208 35.6516 402.126C35.539 402.044 35.4552 401.929 35.4121 401.797C35.369 401.664 35.369 401.522 35.4119 401.389C35.4549 401.257 35.5387 401.142 35.6512 401.06C41.8837 396.84 48.6166 393.411 55.6949 390.853C66.7534 386.803 83.5695 383.131 100.881 388.643C100.964 388.669 101.041 388.711 101.107 388.767C101.174 388.823 101.228 388.891 101.268 388.968C101.308 389.045 101.332 389.129 101.34 389.215C101.347 389.302 101.338 389.389 101.311 389.471C101.285 389.554 101.243 389.631 101.187 389.697C101.131 389.763 101.062 389.818 100.985 389.857C100.908 389.897 100.824 389.921 100.738 389.928C100.651 389.935 100.564 389.925 100.482 389.899C83.5247 384.5 67.0134 388.111 56.1479 392.091C49.1834 394.605 42.5585 397.976 36.4257 402.126C36.3134 402.208 36.178 402.252 36.039 402.252Z" fill="#3F3D56"/>
<path d="M106.648 374.906C107.409 374.699 108.115 374.327 108.716 373.817C109.318 373.307 109.8 372.672 110.13 371.955C110.459 371.239 110.628 370.459 110.623 369.67C110.619 368.881 110.441 368.103 110.104 367.39L121.726 329.485L113.177 327.79L102.547 364.945C101.388 365.592 100.506 366.642 100.069 367.895C99.6315 369.149 99.6692 370.52 100.175 371.748C100.68 372.976 101.618 373.975 102.811 374.557C104.005 375.139 105.37 375.264 106.648 374.906Z" fill="#FFB6B6"/>
<path d="M122.403 318.41C121.17 317.921 119.812 317.838 118.528 318.175V318.183C118.095 318.287 117.676 318.442 117.28 318.646C116.846 318.859 116.441 319.125 116.072 319.438C115.275 320.1 114.66 320.953 114.284 321.918L108.619 331.791C108.456 332.071 108.357 332.383 108.327 332.706C108.297 333.028 108.338 333.354 108.447 333.659C108.553 333.966 108.724 334.246 108.949 334.48C109.174 334.715 109.447 334.898 109.749 335.017L110.973 335.495L116.786 337.779L118.928 338.627L120.372 339.192C120.673 339.311 120.997 339.363 121.321 339.346C121.645 339.328 121.961 339.24 122.248 339.089C122.534 338.938 122.785 338.726 122.983 338.469C123.18 338.212 123.32 337.915 123.392 337.599L125.95 326.541C126.555 324.992 126.521 323.267 125.856 321.742C125.192 320.218 123.95 319.02 122.403 318.41Z" fill="#3F3D56"/>
<path d="M139.248 488.977H145.167L147.983 466.143H139.248V488.977Z" fill="#FFB6B6"/>
<path d="M136.125 499.235H140.369L141.127 495.226L143.067 499.235H154.323C154.863 499.235 155.388 499.062 155.823 498.742C156.257 498.422 156.578 497.972 156.739 497.457C156.9 496.941 156.891 496.388 156.715 495.878C156.539 495.368 156.205 494.927 155.761 494.621L146.772 488.411V484.358L137.317 484.923L136.125 499.235Z" fill="#2F2E41"/>
<path d="M81.6935 477.231L86.7835 480.251L100.85 462.048L93.3375 457.591L81.6935 477.231Z" fill="#FFB6B6"/>
<path d="M73.7765 484.46L77.4269 486.626L80.1223 483.565L79.7472 488.002L89.429 493.746C89.893 494.021 90.4329 494.141 90.9698 494.088C91.5068 494.035 92.0126 493.811 92.4134 493.45C92.8143 493.088 93.0892 492.608 93.1981 492.08C93.3069 491.551 93.244 491.001 93.0184 490.511L88.4536 480.583L90.5199 477.098L82.0998 472.759L73.7765 484.46Z" fill="#2F2E41"/>
<path d="M141.89 342.976L144.766 361.316L117.445 361.676L121.04 344.055L141.89 342.976Z" fill="#FFB6B6"/>
<path d="M144.871 361.084L152.675 380.016L153.243 430.643L146.584 478.981H139.215L136.195 431.431L128.769 398.895L121.444 432.924L98.6704 466.232H87.4795L108.054 429.528L110.435 389.545C110.435 389.545 108.951 372.584 116.546 362.575L118.395 357.232L144.871 361.084Z" fill="#2F2E41"/>
<path d="M145.249 326.086C145.233 325.921 145.21 325.748 145.179 325.583C144.588 321.626 142.454 318.064 139.245 315.677C136.035 313.29 132.01 312.272 128.052 312.846C124.335 313.403 120.948 315.298 118.528 318.175V318.183C118.402 318.332 118.285 318.489 118.167 318.646C117.955 318.913 117.759 319.195 117.571 319.478C115.87 322.048 114.994 325.076 115.06 328.158V328.165C115.085 329.353 115.251 330.533 115.555 331.681C116.077 333.69 116.488 335.725 116.786 337.779C116.99 339.082 117.147 340.361 117.265 341.609C117.335 342.237 117.39 342.857 117.437 343.461V343.469C117.673 346.459 117.751 349.143 117.822 351.223C117.853 352.353 117.885 353.295 117.94 354.017C117.941 354.064 117.946 354.111 117.955 354.158C118.016 354.643 118.224 355.098 118.552 355.461C118.592 355.511 118.636 355.559 118.685 355.602C119.033 355.915 119.454 356.136 119.909 356.245C120.066 356.277 120.227 356.293 120.387 356.292H120.434L125.008 354.158L128.617 352.478L140.864 346.765C141.366 346.755 141.852 346.591 142.259 346.297C142.665 346.002 142.972 345.591 143.139 345.117V345.109C143.154 345.046 143.178 344.984 143.194 344.913C143.853 342.315 145.022 339.529 145.437 335.048C145.492 334.405 145.539 333.737 145.563 333.023V333.015C145.632 330.701 145.527 328.385 145.249 326.086Z" fill="#3F3D56"/>
<path d="M128.241 310.365C134.621 310.365 139.793 305.191 139.793 298.809C139.793 292.427 134.621 287.253 128.241 287.253C121.861 287.253 116.689 292.427 116.689 298.809C116.689 305.191 121.861 310.365 128.241 310.365Z" fill="#FFB6B6"/>
<path d="M115.908 316.77C113.474 316.773 111.141 317.742 109.421 319.463C107.7 321.184 106.732 323.518 106.729 325.952V344.983C106.728 347.123 107.475 349.195 108.84 350.842C110.205 352.489 112.103 353.606 114.205 354.001H114.213C114.772 354.105 115.339 354.157 115.908 354.158H128.617V316.77H115.908Z" fill="#169976"/>
<path d="M116.072 318.646V332.529C116.072 332.953 116.241 333.361 116.541 333.661C116.841 333.961 117.248 334.13 117.673 334.13C118.097 334.13 118.504 333.961 118.805 333.661C119.105 333.361 119.273 332.953 119.273 332.529V318.646H116.072Z" fill="#3F3D56"/>
<path d="M123.125 341.609H113.821C113.555 341.609 113.293 341.662 113.048 341.763C112.803 341.865 112.58 342.015 112.393 342.203C112.205 342.391 112.057 342.614 111.956 342.86C111.855 343.105 111.804 343.368 111.805 343.634V349.198C111.804 349.734 112.016 350.248 112.394 350.627C112.772 351.007 113.285 351.221 113.821 351.223H123.125C123.662 351.221 124.176 351.008 124.555 350.628C124.935 350.249 125.148 349.734 125.149 349.198V343.634C125.15 343.368 125.097 343.104 124.995 342.859C124.894 342.613 124.745 342.39 124.557 342.202C124.369 342.014 124.146 341.865 123.9 341.763C123.654 341.661 123.391 341.609 123.125 341.609Z" fill="#3F3D56"/>
<path d="M140.314 339.849C142.851 336.627 144.191 332.623 144.103 328.523C144.103 320.277 139.193 313.569 133.158 313.569C129.918 313.569 126.866 315.506 124.783 318.883L125.692 319.444C127.576 316.389 130.297 314.637 133.158 314.637C138.604 314.637 143.035 320.866 143.035 328.523C143.124 332.371 141.874 336.13 139.499 339.158L140.314 339.849Z" fill="#169976"/>
<path d="M165.487 367.769C165.836 367.062 166.026 366.287 166.044 365.499C166.061 364.71 165.905 363.927 165.588 363.206C165.27 362.484 164.798 361.84 164.204 361.321C163.611 360.801 162.911 360.418 162.154 360.198L141.496 326.361L134.559 331.638L155.314 364.235C155.029 365.532 155.23 366.889 155.878 368.047C156.526 369.206 157.577 370.087 158.831 370.522C160.085 370.958 161.455 370.918 162.682 370.411C163.909 369.904 164.907 368.964 165.487 367.769Z" fill="#FFB6B6"/>
<path d="M148.67 330.488L145.179 325.583L143.311 322.962L142.095 321.251C141.714 320.498 141.182 319.831 140.534 319.289C139.428 318.363 138.036 317.846 136.593 317.827C135.15 317.807 133.745 318.285 132.613 319.181C131.482 320.077 130.694 321.335 130.382 322.745C130.07 324.154 130.253 325.628 130.9 326.918L134.525 337.708C134.629 338.016 134.799 338.297 135.022 338.533C135.244 338.768 135.515 338.954 135.816 339.076C136.116 339.198 136.44 339.254 136.764 339.24C137.088 339.226 137.405 339.143 137.694 338.996L138.863 338.399L140.707 337.457L142.362 336.618H142.37L145.438 335.048L146.481 334.522L147.862 333.816C148.15 333.667 148.403 333.458 148.603 333.202C148.804 332.947 148.947 332.652 149.024 332.336C149.1 332.021 149.108 331.693 149.047 331.374C148.986 331.055 148.858 330.753 148.67 330.488Z" fill="#3F3D56"/>
<path d="M694.571 500H2.24329C2.14837 500 2.05433 499.982 1.96654 499.946C1.87876 499.91 1.79897 499.857 1.73174 499.79C1.66452 499.722 1.61118 499.643 1.57478 499.555C1.53838 499.468 1.51965 499.373 1.51965 499.279C1.51965 499.184 1.53838 499.09 1.57478 499.002C1.61118 498.914 1.66452 498.835 1.73174 498.768C1.79897 498.701 1.87876 498.647 1.96654 498.611C2.05433 498.575 2.14837 498.557 2.24329 498.557H694.571C694.763 498.557 694.946 498.633 695.081 498.768C695.217 498.904 695.293 499.087 695.293 499.279C695.293 499.47 695.217 499.653 695.081 499.789C694.946 499.924 694.763 500 694.571 500Z" fill="#CCCCCC"/>
<path d="M368.45 439.517C365.417 433.9 364.994 426.538 368.718 421.353C370.559 428.047 374.709 433.873 380.431 437.801C382.644 439.308 385.262 440.754 386.019 443.322C386.417 444.959 386.171 446.687 385.333 448.148C384.496 449.591 383.478 450.921 382.304 452.105L382.197 452.507C376.706 449.252 371.483 445.135 368.45 439.517Z" fill="#E6E6E6"/>
<path d="M182.515 297.47C179.483 291.852 179.059 284.49 182.783 279.305C184.625 285.999 188.774 291.826 194.497 295.754C196.71 297.261 199.327 298.706 200.084 301.274C200.482 302.912 200.237 304.639 199.399 306.101C198.562 307.544 197.544 308.873 196.369 310.057L196.262 310.459C190.772 307.204 185.548 303.087 182.515 297.47Z" fill="#E6E6E6"/>
<path d="M121.195 289.381V289.389C121.197 289.891 121.132 290.392 121.005 290.878C120.984 290.964 120.96 291.053 120.932 291.138V291.142C120.659 292.011 120.19 292.804 119.56 293.46C118.93 294.117 118.156 294.618 117.3 294.926C117.174 294.974 117.044 295.015 116.914 295.051C116.641 295.131 116.361 295.188 116.078 295.222C115.824 295.258 115.568 295.276 115.311 295.275C115.111 295.276 114.91 295.266 114.711 295.246C114.244 295.199 113.784 295.094 113.343 294.934C113.274 294.914 113.206 294.889 113.14 294.861C113.107 294.849 113.075 294.835 113.043 294.82C112.307 294.512 111.641 294.057 111.086 293.484C110.531 292.91 110.098 292.23 109.814 291.484C109.529 290.738 109.4 289.942 109.432 289.144C109.465 288.346 109.659 287.564 110.004 286.844L110.008 286.84C110.296 286.235 110.687 285.686 111.164 285.216C112.265 284.117 113.757 283.501 115.311 283.503C115.389 283.501 115.466 283.504 115.543 283.511C116.438 283.548 117.313 283.788 118.102 284.214C118.891 284.639 119.573 285.239 120.096 285.967C120.548 286.595 120.871 287.307 121.045 288.061C121.145 288.494 121.195 288.937 121.195 289.381Z" fill="#2F2E41"/>
<path d="M114.405 285.811C113.888 283.861 112.77 282.123 111.21 280.844C109.65 279.564 107.727 278.809 105.714 278.684C103.701 278.559 101.699 279.071 99.9933 280.148C98.2873 281.225 96.9634 282.811 96.2093 284.683C94.9453 287.819 95.4086 291.378 94.6515 294.674C93.8882 297.666 92.1649 300.326 89.7458 302.245C87.3266 304.164 84.3451 305.236 81.2583 305.298L92.7104 309.914C93.9332 310.54 95.3043 310.818 96.6741 310.717C98.6667 310.38 100.053 308.476 100.615 306.533C101.176 304.591 101.13 302.528 101.486 300.538C101.947 298.093 102.997 295.797 104.545 293.85C106.094 291.902 108.093 290.362 110.371 289.362C111.661 288.81 113.093 288.395 114.005 287.329C114.917 286.264 114.866 284.253 113.545 283.784" fill="#2F2E41"/>
<path d="M132.963 285.857C131.41 282.462 127.311 283.152 123.605 283.6C121.754 283.886 120.001 284.619 118.497 285.735C116.994 286.851 115.785 288.317 114.975 290.006C113.391 293.43 113.088 297.308 114.122 300.936C114.676 303.406 115.999 305.638 117.901 307.309C119.858 308.884 129.059 312.607 129.825 309.401C128.868 313.584 130.794 312.929 133.645 316.136C135.122 311.698 135.815 303.336 137.291 298.898L137.958 296.894C138.427 295.486 138.896 294.075 139.235 292.63C139.66 290.815 139.824 288.734 138.697 287.249C137.57 285.764 134.73 285.706 134.161 287.482" fill="#2F2E41"/>
<path d="M131.104 299.989L130.61 296.844C130.945 292.933 130.398 286.712 132.963 285.857L134.532 287.427C133.54 287.758 131.652 293.606 131.104 299.989Z" fill="#FE7743"/>
</g>
<defs>
<clipPath id="clip0_12_3882">
<rect width="732" height="500" fill="white"/>
</clipPath>
</defs>
</svg>
