<svg width="541" height="450" viewBox="0 0 541 450" fill="none" xmlns="http://www.w3.org/2000/svg">
<g clip-path="url(#clip0_30_207)">
<path d="M135 346.313H523.287C525.51 346.313 527.712 345.876 529.767 345.025C531.821 344.175 533.688 342.929 535.26 341.358C536.832 339.787 538.08 337.922 538.93 335.869C539.781 333.816 540.219 331.616 540.219 329.394V105.041C540.222 103.542 540.023 102.049 539.626 100.603C538.652 97.0183 536.524 93.8541 533.571 91.5985C530.618 89.3428 527.004 88.1212 523.287 88.1221H371.627C368.089 94.0768 365.909 100.738 365.241 107.631C363.36 127.67 374.859 146.196 385.148 163.504C395.437 180.813 405.25 200.938 399.801 220.322C396.116 233.395 386.132 242.857 373.743 248.528C361.838 253.792 348.743 255.785 335.81 254.3C328.043 253.32 320.392 251.575 312.968 249.09C303.233 245.931 293.725 241.835 284.232 237.693C284.224 237.693 284.224 237.693 284.216 237.686C284.052 237.615 283.88 237.537 283.716 237.467C276.37 234.261 269.032 231.048 261.585 228.216C252.858 224.806 243.801 222.312 234.558 220.775C220.514 218.575 206.353 219.37 193.823 225.736C173.401 236.102 162.456 258.505 153.892 279.737C145.242 301.204 137.49 323.388 135 346.313Z" fill="#169976"/>
<path d="M0.780762 260.486V329.394C0.780642 331.616 1.21852 333.816 2.06942 335.869C2.92032 337.921 4.16757 339.787 5.73993 341.358C7.3123 342.929 9.17897 344.175 11.2334 345.025C13.2878 345.876 15.4897 346.313 17.7134 346.313H82.2586C83.375 335.915 82.4382 325.556 78.3397 315.892C69.4089 294.815 47.8001 282.35 27.1985 272.342C18.5409 268.138 9.73497 264.082 0.780762 260.486Z" fill="#169976"/>
<path d="M68.4229 330.4C68.4229 334.887 70.2068 339.191 73.3823 342.364C76.5578 345.537 80.8646 347.319 85.3554 347.319H149.901C151.017 336.921 150.08 326.563 145.982 316.898C143.882 311.943 138.978 306.454 132.587 300.909C107.513 279.155 68.4229 297.22 68.4229 330.4Z" fill="#169976"/>
<path d="M0 329.394V105.041C0.00532256 100.349 1.87324 95.8498 5.19396 92.5318C8.51468 89.2138 13.017 87.3474 17.7132 87.342H523.287C527.983 87.3474 532.485 89.2138 535.806 92.5318C539.127 95.8498 540.995 100.349 541 105.041V329.394C540.995 334.086 539.127 338.585 535.806 341.903C532.485 345.221 527.983 347.088 523.287 347.093H17.7132C13.017 347.088 8.51456 345.221 5.19384 341.903C1.87311 338.585 0.00524196 334.086 0 329.394ZM17.7132 88.9021C13.4309 88.9069 9.32542 90.6088 6.29739 93.6343C3.26936 96.6599 1.56611 100.762 1.56133 105.041V329.394C1.56603 333.673 3.26923 337.775 6.29727 340.801C9.32531 343.826 13.4309 345.528 17.7132 345.533H523.287C527.569 345.528 531.675 343.826 534.703 340.801C537.731 337.775 539.434 333.673 539.439 329.394V105.041C539.434 100.762 537.731 96.6599 534.703 93.6343C531.675 90.6088 527.569 88.9069 523.287 88.9021H17.7132Z" fill="#3F3D56"/>
<path d="M167.304 345.759H190.264C194.19 332.548 199.858 318.545 205.034 305.783C214.964 281.315 227.65 255.498 251.327 243.551C261.437 238.449 272.46 236.457 283.717 236.565C299.268 236.713 315.256 240.884 329.893 246.412C335.881 248.668 341.814 251.149 347.723 253.684C369.988 263.243 392.01 273.655 415.953 276.47C446.251 280.028 481.873 266.484 490.148 237.31C496.463 214.974 485.089 191.785 473.16 171.836C461.232 151.888 447.898 130.544 450.076 107.448C450.084 107.371 450.092 107.286 450.108 107.208C450.927 98.9124 455.884 92.9506 462.809 89.1284H432.66C432.261 110.674 444.737 129.691 455.962 148.469C467.891 168.41 479.265 191.606 472.95 213.942C464.675 243.109 396.153 208.92 365.856 205.353C357.3 204.353 370.891 207.912 362.733 205.353C349.938 201.345 348.52 238.108 336.068 232.712C328.316 229.347 320.556 226.006 312.695 223.037C309.44 221.804 306.114 220.649 302.749 219.579C302.742 219.579 302.742 219.579 302.734 219.571C280.141 212.423 255.433 209.64 234.558 219.974C234.418 220.044 234.27 220.114 234.129 220.184C210.451 232.123 197.766 257.94 187.836 282.408C179.631 302.636 171.348 324.423 167.304 345.759Z" fill="#3F3D56"/>
<path d="M167.554 184.954H18.2192C16.9956 184.954 15.822 185.44 14.9568 186.304C14.0915 187.169 13.6055 188.341 13.6055 189.564C13.6055 190.787 14.0915 191.959 14.9568 192.824C15.822 193.688 16.9956 194.174 18.2192 194.174H167.554C168.777 194.174 169.951 193.688 170.816 192.824C171.681 191.959 172.167 190.787 172.167 189.564C172.167 188.341 171.681 187.169 170.816 186.304C169.951 185.44 168.777 184.954 167.554 184.954Z" fill="#3F3D56"/>
<path d="M64.6242 159.105H18.3227C17.0991 159.105 15.9256 159.591 15.0603 160.455C14.1951 161.32 13.709 162.492 13.709 163.715C13.709 164.938 14.1951 166.11 15.0603 166.975C15.9256 167.839 17.0991 168.325 18.3227 168.325H64.6242C65.8479 168.325 67.0214 167.839 67.8866 166.975C68.7519 166.11 69.238 164.938 69.238 163.715C69.238 162.492 68.7519 161.32 67.8866 160.455C67.0214 159.591 65.8479 159.105 64.6242 159.105Z" fill="#3F3D56"/>
<path d="M243.175 428.96L233.711 428.88L229.521 391.555L243.489 391.673L243.175 428.96Z" fill="#FFB6B6"/>
<path d="M212.86 443.997C212.852 445.118 213.289 446.197 214.075 446.997C214.861 447.796 215.933 448.251 217.055 448.262L235.872 448.419L239.166 441.747L240.376 448.453L247.476 448.518L245.683 424.6L243.213 424.436L233.137 423.742L229.887 423.525L229.83 430.292L214.714 440.536C214.148 440.92 213.683 441.436 213.36 442.039C213.037 442.641 212.866 443.314 212.86 443.997Z" fill="#2F2E41"/>
<path d="M339.197 428.96L329.732 428.88L325.543 391.555L339.511 391.673L339.197 428.96Z" fill="#FFB6B6"/>
<path d="M308.881 443.997C308.873 445.118 309.31 446.197 310.096 446.997C310.883 447.796 311.955 448.251 313.077 448.262L331.893 448.419L335.188 441.747L336.397 448.453L343.497 448.518L341.705 424.6L339.234 424.436L329.159 423.742L325.908 423.525L325.851 430.292L310.736 440.536C310.169 440.92 309.705 441.436 309.382 442.039C309.059 442.641 308.887 443.314 308.881 443.997Z" fill="#2F2E41"/>
<path d="M231.5 130.048L274.095 97.2931C275.895 95.9001 277.076 93.8555 277.381 91.6007C277.686 89.3459 277.092 87.0616 275.726 85.2408C275.02 84.2989 274.129 83.5105 273.107 82.9239C272.086 82.3372 270.956 81.9645 269.786 81.8285C268.615 81.6926 267.43 81.7961 266.301 82.1329C265.172 82.4697 264.124 83.0327 263.22 83.7875L220.018 119.167L192.86 139.559C191.516 138.778 189.964 138.43 188.415 138.561C186.866 138.692 185.395 139.297 184.202 140.292C183.009 141.288 182.151 142.627 181.746 144.126C181.341 145.626 181.407 147.214 181.937 148.674C182.466 150.135 183.433 151.397 184.705 152.289C185.977 153.182 187.494 153.662 189.048 153.663C190.603 153.664 192.12 153.188 193.394 152.297C194.668 151.407 195.637 150.147 196.169 148.687L231.5 130.048Z" fill="#FFB6B6"/>
<path d="M266.216 137.577L264.339 179.476L328.108 187.186C323.09 170.35 314.862 146.966 318.632 135.25L266.216 137.577Z" fill="#A0616A"/>
<path d="M302.465 60.7649H282.822L274.386 75.1885L270.367 74.9667C262.533 77.9815 259.41 81.1016 255.087 89.4145L239.894 102.163L251.604 116.203C259.692 114.879 262.608 108.606 260.04 97.0846C260.04 97.0846 251.182 112.508 263.941 120.096C263.941 120.096 261.665 134.393 263.941 134.239C266.217 134.086 271.458 131.176 266.217 134.086C260.975 136.995 261.873 137.121 262.044 138.064C264.875 153.645 267.217 165.345 267.217 165.345L322.644 170.805C322.644 170.805 319.45 137.312 319.624 135.408C319.797 133.504 318.633 138.159 319.797 133.504C320.962 128.848 322.709 130.594 320.962 128.848C319.215 127.102 332.973 125.599 327.603 117.21L345.559 112.529L335.522 88.6951C335.522 80.6476 322.587 74.1239 314.533 74.1239H313.501L302.465 60.7649Z" fill="#E6E6E6"/>
<path d="M323.369 164.477C301.684 171.93 282.162 170.293 265.655 155.985C265.655 155.985 261.01 173.145 256.307 170.805C251.604 168.465 253.928 175.013 252.636 177.414C251.264 179.963 252.857 184.263 248.327 185.724C243.797 187.186 245.499 191.482 244.032 194.644C233.769 216.769 222.049 248.088 214.132 287.811C205.996 328.629 225.842 397.015 225.842 397.015L244.578 395.455L249.262 306.531L270.685 268.945C270.685 268.945 281.21 262.821 274.604 259.715C267.997 256.609 272.423 252.76 277.236 253.515C282.049 254.269 287.514 229.308 287.514 229.308C280.652 246.54 323.425 398.575 323.425 398.575L341.38 397.015L331.231 184.846L323.369 164.477Z" fill="#2F2E41"/>
<path d="M314.123 24.5542C316.252 29.8532 322.259 40.2738 323.073 45.9585L322.707 45.5987C322.008 46.7912 321.214 47.9253 320.333 48.9901C318.753 47.3324 316.845 46.0215 314.731 45.1411C315.885 47.5085 316.554 50.083 316.698 52.7127C312.787 56.1155 302.799 54.0625 297.809 55.8759C289.779 58.7871 281.253 59.8235 272.835 60.6842C269.847 60.9915 266.502 61.1781 264.408 59.4139C262.314 57.6497 263.561 54.3827 262.435 51.9117C254.411 34.3106 261.816 27.9603 268.108 19.9793C269.492 18.223 269.486 15.602 271.171 13.9262C273.509 11.6035 277.092 10.889 280.396 10.3167C279.537 10.3619 278.682 10.1856 277.912 9.80472C277.142 9.42387 276.482 8.85133 275.998 8.14219C275.573 7.42773 275.353 6.60983 275.364 5.7787C275.374 4.94757 275.615 4.13551 276.058 3.43207C277.239 1.47484 279.694 0.336683 282.063 0.0523532C284.397 -0.105984 286.741 0.0953545 289.013 0.649304C290.485 0.842744 291.91 1.29796 293.222 1.99343C293.841 2.32327 294.344 2.83398 294.664 3.45727C294.985 4.08057 295.107 4.78674 295.015 5.48139C294.818 6.12287 294.478 6.71155 294.021 7.20352C293.564 7.6955 293.002 8.07806 292.377 8.32271C291.423 8.72556 290.42 8.99992 289.394 9.13856C294.107 8.5275 298.894 9.36473 303.119 11.5389C308.413 14.3609 311.986 19.258 314.123 24.5542Z" fill="#2F2E41"/>
<path d="M285.453 54.2623C295.906 54.2623 304.38 45.7955 304.38 35.3511C304.38 24.9068 295.906 16.4399 285.453 16.4399C275.001 16.4399 266.527 24.9068 266.527 35.3511C266.527 45.7955 275.001 54.2623 285.453 54.2623Z" fill="#FFB6B6"/>
<path d="M303.666 25.2112C302.568 28.5251 299.432 29.593 296.534 30.259C295.62 30.4718 294.7 30.6702 293.772 30.8466C293.43 30.4189 293.066 29.9997 292.685 29.6035C291.106 27.9457 289.198 26.6349 287.083 25.7544C287.997 27.6245 288.605 29.6292 288.883 31.692C287.131 31.946 285.369 32.1536 283.597 32.3147C282.098 32.6335 280.534 32.3647 279.228 31.5639C277.921 30.7631 276.973 29.4914 276.578 28.0117C274.965 30.6471 273.058 33.129 270.45 34.1758C268.959 34.7113 267.335 34.7553 265.817 34.3014C264.299 33.8476 262.966 32.9198 262.014 31.654C260.452 29.7501 259.582 27.1923 258.957 24.7237C258.217 21.7891 257.805 18.4086 259.259 16.5466C260.423 15.0397 262.431 15.0127 264.284 15.1463C268.373 15.4598 272.42 16.1928 276.359 17.3338L276.693 18.083C276.016 14.0191 277.484 10.1091 280.201 8.71852C282.034 7.78879 284.239 7.94468 286.381 8.1333C289.133 8.25598 291.852 8.78139 294.451 9.69272C297.433 10.8388 299.988 12.8774 301.766 15.5297C303.667 18.4147 304.612 22.3493 303.666 25.2112Z" fill="#2F2E41"/>
<path d="M276.684 7.53589C276.871 7.48081 276.387 7.55156 276.555 7.55606C276.471 7.55123 276.389 7.53964 276.307 7.52141C276.293 7.51864 276.105 7.45855 276.23 7.50269C275.949 7.4187 275.698 7.2552 275.508 7.03191C275.063 6.48258 274.715 5.86232 274.476 5.1972C274.176 4.31825 273.692 3.51278 273.058 2.83369C272.878 2.653 272.658 2.51728 272.415 2.43754C272.173 2.3578 271.915 2.33629 271.663 2.37477C271.41 2.41324 271.171 2.51061 270.963 2.65897C270.756 2.80733 270.586 3.00249 270.468 3.22862C270.1 4.04333 270.436 5.04716 270.699 5.84734C270.971 6.67875 271.374 7.46097 271.895 8.16388C272.767 9.31331 273.956 10.1843 275.315 10.6708C276.888 11.2418 278.604 11.2907 280.207 10.8105C280.419 10.7227 280.6 10.5753 280.73 10.3861C280.859 10.1969 280.931 9.97425 280.936 9.74516C280.941 9.51608 280.879 9.29047 280.758 9.09585C280.637 8.90123 280.462 8.74599 280.254 8.64904L277.58 7.5554C277.439 7.49352 277.288 7.45994 277.134 7.45659C276.98 7.45324 276.827 7.4802 276.684 7.53589C276.541 7.59159 276.41 7.67491 276.299 7.78117C276.188 7.88742 276.099 8.01451 276.037 8.15515C275.975 8.29579 275.941 8.44725 275.938 8.60087C275.934 8.75449 275.961 8.90726 276.017 9.05047C276.073 9.19368 276.156 9.32452 276.263 9.43551C276.369 9.54651 276.496 9.63549 276.637 9.69738L279.311 10.791L279.358 8.62951C279.024 8.72574 278.681 8.78439 278.334 8.80438C277.965 8.8414 277.591 8.82566 277.226 8.75766C276.876 8.71181 276.532 8.628 276.2 8.50771C275.987 8.43015 275.779 8.34186 275.575 8.24318C275.501 8.2073 275.428 8.17005 275.356 8.13143C275.361 8.13421 275.05 7.95319 275.186 8.03825C274.84 7.81742 274.516 7.56487 274.217 7.28386C274.111 7.18422 274.014 7.07611 273.926 6.96064C273.774 6.77364 273.633 6.57792 273.503 6.37446C273.24 5.94362 273.031 5.48166 272.882 4.99926C272.814 4.79652 272.757 4.59038 272.71 4.38167C272.697 4.26711 272.676 4.15356 272.648 4.04182C272.549 3.77558 272.667 4.19729 272.553 4.31265L272.06 4.67557C271.967 4.70312 271.87 4.70951 271.774 4.69425C271.679 4.67899 271.588 4.64248 271.509 4.58743C271.451 4.50532 271.463 4.51894 271.547 4.62829C271.645 4.75698 271.734 4.89172 271.815 5.03172C271.991 5.3613 272.151 5.69963 272.294 6.0454C272.588 6.78077 272.96 7.48266 273.403 8.13911C273.838 8.80308 274.471 9.31307 275.212 9.59638C275.954 9.8797 276.766 9.92189 277.533 9.71692C277.821 9.60242 278.052 9.37945 278.177 9.0961C278.302 8.81276 278.31 8.49176 278.2 8.20236C278.082 7.91715 277.859 7.68846 277.576 7.56422C277.294 7.43999 276.974 7.42984 276.684 7.53589Z" fill="#2F2E41"/>
<path d="M247.165 213.001C278.072 213.001 303.127 187.966 303.127 157.084C303.127 126.202 278.072 101.167 247.165 101.167C216.258 101.167 191.203 126.202 191.203 157.084C191.203 187.966 216.258 213.001 247.165 213.001Z" fill="white"/>
<path d="M247.165 213.781C235.942 213.781 224.972 210.456 215.641 204.226C206.309 197.996 199.036 189.141 194.742 178.782C190.447 168.422 189.323 157.022 191.513 146.024C193.702 135.026 199.106 124.923 207.042 116.994C214.977 109.065 225.088 103.665 236.095 101.477C247.102 99.2895 258.511 100.412 268.879 104.703C279.248 108.995 288.11 116.261 294.345 125.585C300.58 134.909 303.908 145.871 303.908 157.084C303.891 172.116 297.907 186.527 287.269 197.156C276.632 207.785 262.209 213.764 247.165 213.781ZM247.165 101.948C236.251 101.948 225.582 105.182 216.508 111.24C207.433 117.299 200.361 125.91 196.184 135.985C192.008 146.06 190.915 157.146 193.044 167.841C195.173 178.537 200.429 188.361 208.146 196.072C215.863 203.783 225.696 209.034 236.4 211.162C247.104 213.289 258.199 212.197 268.282 208.024C278.365 203.851 286.983 196.784 293.047 187.717C299.11 178.649 302.346 167.989 302.346 157.084C302.33 142.466 296.511 128.451 286.166 118.115C275.821 107.779 261.795 101.964 247.165 101.948Z" fill="#3F3D56"/>
<path d="M239.531 186.186C238.564 186.186 237.611 185.961 236.747 185.53C235.883 185.098 235.131 184.47 234.551 183.698L219.284 163.358C218.793 162.704 218.437 161.961 218.234 161.169C218.031 160.378 217.986 159.555 218.102 158.746C218.217 157.937 218.491 157.16 218.908 156.457C219.324 155.754 219.875 155.14 220.529 154.65C221.183 154.16 221.927 153.803 222.719 153.601C223.511 153.398 224.335 153.353 225.144 153.469C225.954 153.584 226.732 153.858 227.436 154.274C228.139 154.69 228.753 155.241 229.244 155.894L239.232 169.2L264.886 130.751C265.34 130.071 265.923 129.488 266.602 129.033C267.281 128.579 268.043 128.262 268.845 128.102C269.646 127.942 270.472 127.941 271.274 128.099C272.076 128.258 272.839 128.573 273.519 129.026C274.199 129.479 274.783 130.061 275.238 130.74C275.693 131.419 276.01 132.18 276.17 132.981C276.33 133.782 276.331 134.607 276.172 135.408C276.014 136.21 275.699 136.972 275.245 137.652L244.711 183.416C244.158 184.244 243.416 184.927 242.544 185.409C241.673 185.891 240.699 186.156 239.704 186.184C239.646 186.185 239.588 186.186 239.531 186.186Z" fill="#169976"/>
<path d="M185.523 449.072C185.523 449.194 185.546 449.315 185.593 449.427C185.639 449.54 185.708 449.643 185.794 449.729C185.881 449.815 185.983 449.884 186.096 449.93C186.209 449.977 186.33 450 186.452 450H384.186C384.433 450 384.669 449.902 384.843 449.728C385.017 449.554 385.115 449.318 385.115 449.072C385.115 448.826 385.017 448.589 384.843 448.415C384.669 448.241 384.433 448.144 384.186 448.144H186.452C186.33 448.143 186.209 448.167 186.096 448.213C185.983 448.26 185.881 448.328 185.794 448.415C185.708 448.501 185.639 448.603 185.593 448.716C185.546 448.829 185.523 448.95 185.523 449.072Z" fill="#CCCCCC"/>
<path d="M360.597 158.997L342.304 108.498C341.523 106.361 339.932 104.616 337.874 103.641C335.817 102.665 333.458 102.537 331.307 103.284C330.195 103.67 329.172 104.279 328.303 105.073C327.433 105.867 326.734 106.83 326.249 107.903C325.764 108.975 325.503 110.135 325.481 111.312C325.459 112.489 325.678 113.658 326.123 114.748L346.735 166.622L357.929 198.67C356.777 199.712 355.973 201.084 355.628 202.598C355.282 204.113 355.412 205.697 355.999 207.135C356.586 208.574 357.602 209.796 358.909 210.638C360.215 211.479 361.75 211.898 363.303 211.838C364.856 211.778 366.354 211.241 367.591 210.301C368.829 209.361 369.747 208.063 370.22 206.583C370.694 205.104 370.7 203.515 370.238 202.031C369.776 200.548 368.868 199.243 367.638 198.293L360.597 158.997Z" fill="#FFB6B6"/>
<path d="M333.068 86.0083L347.9 112.529C347.9 112.529 313.717 124.224 313.634 122.277C313.551 120.33 315.333 93.3111 315.333 93.3111L333.068 86.0083Z" fill="#E6E6E6"/>
</g>
<defs>
<clipPath id="clip0_30_207">
<rect width="541" height="450" fill="white"/>
</clipPath>
</defs>
</svg>
