<svg width="36" height="36" viewBox="0 0 36 36" fill="none" xmlns="http://www.w3.org/2000/svg">
<path opacity="0.4" d="M35.1562 27C35.38 27 35.5946 27.0889 35.7529 27.2471C35.9111 27.4054 36 27.62 36 27.8438V30.6562C36 30.88 35.9111 31.0946 35.7529 31.2529C35.5946 31.4111 35.38 31.5 35.1562 31.5H0.84375C0.619974 31.5 0.405362 31.4111 0.247129 31.2529C0.0888948 31.0946 0 30.88 0 30.6562L0 5.34375C0 5.11997 0.0888948 4.90536 0.247129 4.74713C0.405362 4.58889 0.619974 4.5 0.84375 4.5H3.65625C3.88003 4.5 4.09464 4.58889 4.25287 4.74713C4.41111 4.90536 4.5 5.11997 4.5 5.34375V27H35.1562Z" fill="#FFFCF7"/>
<path d="M27.4289 11.5453L33.75 24.75H6.75V17.4375L12.8531 7.26328C12.9244 7.14462 13.0238 7.04533 13.1426 6.97416C13.2613 6.903 13.3957 6.86214 13.534 6.85519C13.6723 6.84824 13.8101 6.87542 13.9354 6.93433C14.0606 6.99323 14.1695 7.08206 14.2523 7.19297L20.25 15.1875L26.2055 11.2148C26.3054 11.1486 26.4183 11.1043 26.5367 11.0851C26.655 11.0659 26.7762 11.0721 26.8919 11.1034C27.0077 11.1347 27.1155 11.1902 27.2081 11.2665C27.3007 11.3427 27.3759 11.4377 27.4289 11.5453V11.5453Z" fill="#FFFCF7"/>
</svg>
