<svg width="36" height="36" viewBox="0 0 36 36" fill="none" xmlns="http://www.w3.org/2000/svg">
<g clip-path="url(#clip0_70_316)">
<path opacity="0.4" d="M18 29.25C26.0789 29.25 32.625 22.7039 32.625 14.625C32.625 6.54609 26.0789 0 18 0C9.92109 0 3.375 6.54609 3.375 14.625C3.375 22.7039 9.92109 29.25 18 29.25ZM16.4391 6.84844V5.66719C16.4387 5.51381 16.4686 5.36186 16.5272 5.22009C16.5857 5.07831 16.6716 4.94949 16.7801 4.84103C16.8886 4.73258 17.0174 4.64662 17.1591 4.58809C17.3009 4.52957 17.4529 4.49963 17.6062 4.5H18.3867C18.5401 4.49963 18.692 4.52957 18.8338 4.58809C18.9756 4.64662 19.1044 4.73258 19.2129 4.84103C19.3213 4.94949 19.4073 5.07831 19.4658 5.22009C19.5243 5.36186 19.5543 5.51381 19.5539 5.66719V6.8625C20.6465 6.91721 21.6984 7.29396 22.5773 7.94531C22.6701 8.01297 22.7469 8.10008 22.8025 8.20053C22.858 8.30098 22.891 8.41236 22.899 8.52687C22.9071 8.64138 22.89 8.75627 22.849 8.8635C22.808 8.97073 22.7441 9.06771 22.6617 9.14766L21.5156 10.2375C21.2484 10.4977 20.8477 10.5047 20.5312 10.3078C20.157 10.071 19.7226 9.94651 19.2797 9.94922H16.5445C15.9117 9.94922 15.3984 10.5258 15.3984 11.2359C15.3984 11.8125 15.75 12.3258 16.2492 12.4734L20.6297 13.7883C22.4367 14.3297 23.7023 16.0664 23.7023 18.0141C23.7023 20.4047 21.8461 22.3383 19.5469 22.4016V23.5828C19.5472 23.7362 19.5173 23.8881 19.4588 24.0299C19.4003 24.1717 19.3143 24.3005 19.2058 24.409C19.0974 24.5174 18.9686 24.6034 18.8268 24.6619C18.685 24.7204 18.5331 24.7504 18.3797 24.75H17.5992C17.4458 24.7504 17.2939 24.7204 17.1521 24.6619C17.0103 24.6034 16.8815 24.5174 16.7731 24.409C16.6646 24.3005 16.5786 24.1717 16.5201 24.0299C16.4616 23.8881 16.4317 23.7362 16.432 23.5828V22.3875C15.3395 22.3328 14.2875 21.956 13.4086 21.3047C13.3159 21.237 13.239 21.1499 13.1835 21.0495C13.1279 20.949 13.0949 20.8376 13.0869 20.7231C13.0789 20.6086 13.0959 20.4937 13.1369 20.3865C13.1779 20.2793 13.2418 20.1823 13.3242 20.1023L14.4703 19.0125C14.7375 18.7523 15.1383 18.7453 15.4547 18.9422C15.829 19.179 16.2633 19.3035 16.7063 19.3008H19.4414C20.0742 19.3008 20.5875 18.7242 20.5875 18.0141C20.5875 17.4375 20.2359 16.9242 19.7367 16.7766L15.3562 15.4617C13.5492 14.9203 12.2836 13.1836 12.2836 11.2359C12.2906 8.84531 14.1398 6.91172 16.4391 6.84844V6.84844Z" fill="#FFFCF7"/>
<path d="M15.3562 15.4617L19.7367 16.7766C20.2359 16.9242 20.5875 17.4375 20.5875 18.0141C20.5875 18.7242 20.0742 19.3008 19.4414 19.3008H16.7063C16.2633 19.3035 15.829 19.179 15.4547 18.9422C15.1383 18.7453 14.7375 18.7524 14.4703 19.0125L13.3242 20.1024C13.2418 20.1823 13.1779 20.2793 13.1369 20.3865C13.0959 20.4937 13.0789 20.6086 13.0869 20.7231C13.0949 20.8377 13.1279 20.949 13.1835 21.0495C13.239 21.1499 13.3159 21.237 13.4086 21.3047C14.2875 21.9561 15.3395 22.3328 16.432 22.3875V23.5828C16.4317 23.7362 16.4616 23.8881 16.5201 24.0299C16.5786 24.1717 16.6646 24.3005 16.7731 24.409C16.8815 24.5174 17.0103 24.6034 17.1521 24.6619C17.2939 24.7204 17.4458 24.7504 17.5992 24.75H18.3797C18.5331 24.7504 18.685 24.7204 18.8268 24.6619C18.9686 24.6034 19.0974 24.5174 19.2058 24.409C19.3143 24.3005 19.4003 24.1717 19.4588 24.0299C19.5173 23.8881 19.5472 23.7362 19.5469 23.5828V22.4016C21.8461 22.3383 23.7023 20.4047 23.7023 18.0141C23.7023 16.0664 22.4367 14.3297 20.6297 13.7883L16.2492 12.4734C15.75 12.3258 15.3984 11.8125 15.3984 11.2359C15.3984 10.5258 15.9117 9.94922 16.5445 9.94922H19.2797C19.7226 9.94651 20.157 10.071 20.5312 10.3078C20.8477 10.5047 21.2484 10.4977 21.5156 10.2375L22.6617 9.14766C22.7441 9.06771 22.808 8.97073 22.849 8.8635C22.89 8.75628 22.9071 8.64139 22.899 8.52687C22.891 8.41236 22.858 8.30098 22.8025 8.20053C22.7469 8.10008 22.6701 8.01298 22.5773 7.94532C21.6984 7.29396 20.6465 6.91721 19.5539 6.8625V5.66719C19.5543 5.51381 19.5243 5.36187 19.4658 5.22009C19.4073 5.07831 19.3213 4.9495 19.2129 4.84104C19.1044 4.73258 18.9756 4.64662 18.8338 4.58809C18.692 4.52957 18.5401 4.49963 18.3867 4.5H17.6062C17.4529 4.49963 17.3009 4.52957 17.1591 4.58809C17.0174 4.64662 16.8886 4.73258 16.7801 4.84104C16.6716 4.9495 16.5857 5.07831 16.5272 5.22009C16.4686 5.36187 16.4387 5.51381 16.4391 5.66719V6.84844C14.1398 6.91172 12.2906 8.84532 12.2836 11.2359C12.2836 13.1836 13.5492 14.9203 15.3562 15.4617V15.4617ZM33.75 24.75H31.4648C30.0749 26.5808 28.3289 28.1115 26.332 29.25H30.818C31.1906 29.25 31.493 29.5031 31.493 29.8125V30.9375C31.493 31.2469 31.1906 31.5 30.818 31.5H5.175C4.80234 31.5 4.5 31.2469 4.5 30.9375V29.8125C4.5 29.5031 4.80234 29.25 5.175 29.25H9.66094C7.66537 28.1096 5.91976 26.5792 4.52813 24.75H2.25C1.65326 24.75 1.08097 24.9871 0.65901 25.409C0.237053 25.831 0 26.4033 0 27L0 33.75C0 34.3468 0.237053 34.919 0.65901 35.341C1.08097 35.763 1.65326 36 2.25 36H33.75C34.3467 36 34.919 35.763 35.341 35.341C35.7629 34.919 36 34.3468 36 33.75V27C36 26.4033 35.7629 25.831 35.341 25.409C34.919 24.9871 34.3467 24.75 33.75 24.75Z" fill="#FFFCF7"/>
</g>
<defs>
<clipPath id="clip0_70_316">
<rect width="36" height="36" fill="white"/>
</clipPath>
</defs>
</svg>
