<svg width="27" height="36" viewBox="0 0 27 36" fill="none" xmlns="http://www.w3.org/2000/svg">
<g clip-path="url(#clip0_70_319)">
<path opacity="0.4" d="M27 8.99988H19.125C18.8266 8.99988 18.5404 8.88135 18.3295 8.67037C18.1185 8.4594 18 8.17325 18 7.87488V-0.00011677H1.68745C1.46639 -0.000671479 1.2474 0.0423188 1.04296 0.126399C0.838521 0.21048 0.652647 0.334005 0.495948 0.48992C0.339249 0.645835 0.214794 0.831088 0.12969 1.0351C0.0445851 1.23912 0.000497586 1.45789 -5.57348e-05 1.67895V34.3124C-0.000610444 34.5334 0.0423799 34.7524 0.126461 34.9569C0.210541 35.1613 0.334066 35.3472 0.489982 35.5039C0.645897 35.6606 0.83115 35.785 1.03516 35.8701C1.23918 35.9552 1.45796 35.9993 1.67901 35.9999H25.3125C25.5335 36.0004 25.7525 35.9574 25.9569 35.8734C26.1614 35.7893 26.3473 35.6657 26.504 35.5098C26.6607 35.3539 26.7851 35.1687 26.8702 34.9646C26.9553 34.7606 26.9994 34.5419 27 34.3208V8.99988ZM21.1253 24.4236L14.3437 31.1525C14.1191 31.3748 13.8159 31.4994 13.5 31.4994C13.184 31.4994 12.8808 31.3748 12.6562 31.1525L5.87667 24.4236C5.16229 23.7156 5.66292 22.4999 6.66698 22.4999H11.25V16.8749C11.25 16.5765 11.3685 16.2904 11.5795 16.0794C11.7904 15.8684 12.0766 15.7499 12.375 15.7499H14.625C14.9233 15.7499 15.2095 15.8684 15.4204 16.0794C15.6314 16.2904 15.75 16.5765 15.75 16.8749V22.4999H20.3329C21.337 22.4999 21.8376 23.7156 21.1253 24.4236Z" fill="#FFFCF7"/>
<path d="M26.5078 7.38281L19.6242 0.492192C19.4671 0.335621 19.2807 0.21156 19.0756 0.127106C18.8705 0.0426515 18.6507 -0.000538853 18.4289 5.07425e-06H18V7.875C18 8.17337 18.1185 8.45952 18.3295 8.6705C18.5405 8.88148 18.8266 9 19.125 9H27V8.5711C27 8.35041 26.9565 8.13189 26.8721 7.928C26.7876 7.72412 26.6639 7.53886 26.5078 7.38281V7.38281ZM20.333 22.5H15.75V16.875C15.75 16.5766 15.6315 16.2905 15.4205 16.0795C15.2095 15.8685 14.9234 15.75 14.625 15.75H12.375C12.0766 15.75 11.7905 15.8685 11.5795 16.0795C11.3685 16.2905 11.25 16.5766 11.25 16.875V22.5H6.66702C5.66296 22.5 5.16234 23.7157 5.87671 24.4237L12.6562 31.1527C12.8808 31.3749 13.184 31.4996 13.5 31.4996C13.816 31.4996 14.1192 31.3749 14.3437 31.1527L21.1254 24.4237C21.8377 23.7157 21.337 22.5 20.333 22.5Z" fill="#FFFCF7"/>
</g>
<defs>
<clipPath id="clip0_70_319">
<rect width="27" height="36" fill="white"/>
</clipPath>
</defs>
</svg>
